<?xml version="1.0" encoding="UTF-8" standalone="no"?>
<svg
   width="355"
   height="310"
   id="svg3642"
   sodipodi:version="0.32"
   inkscape:version="1.1.2 (0a00cf5339, 2022-02-04, custom)"
   sodipodi:docname="decoration.svg"
   inkscape:output_extension="org.inkscape.output.svg.inkscape"
   version="1.0"
   inkscape:export-xdpi="90"
   inkscape:export-ydpi="90"
   xmlns:inkscape="http://www.inkscape.org/namespaces/inkscape"
   xmlns:sodipodi="http://sodipodi.sourceforge.net/DTD/sodipodi-0.dtd"
   xmlns:xlink="http://www.w3.org/1999/xlink"
   xmlns="http://www.w3.org/2000/svg"
   xmlns:svg="http://www.w3.org/2000/svg">
  <sodipodi:namedview
     id="base"
     pagecolor="#585858"
     bordercolor="#666666"
     borderopacity="1.0"
     inkscape:pageopacity="1"
     inkscape:pageshadow="2"
     inkscape:zoom="0.5"
     inkscape:cx="191"
     inkscape:cy="126"
     inkscape:current-layer="svg3642"
     showgrid="false"
     inkscape:grid-bbox="true"
     inkscape:document-units="px"
     inkscape:window-width="1920"
     inkscape:window-height="999"
     inkscape:window-x="0"
     inkscape:window-y="0"
     width="48px"
     height="48px"
     showguides="true"
     inkscape:guide-bbox="true"
     objecttolerance="9"
     gridtolerance="13"
     inkscape:window-maximized="1"
     inkscape:snap-global="true"
     inkscape:snap-bbox="true"
     inkscape:bbox-nodes="true"
     inkscape:bbox-paths="true"
     inkscape:snap-bbox-edge-midpoints="true"
     inkscape:snap-midpoints="true"
     inkscape:snap-smooth-nodes="true"
     inkscape:snap-intersection-paths="true"
     inkscape:object-paths="true"
     inkscape:snap-nodes="true"
     inkscape:document-rotation="0"
     inkscape:pagecheckerboard="0">
    <inkscape:grid
       type="xygrid"
       id="grid2555"
       enabled="true"
       visible="true"
       empspacing="5"
       snapvisiblegridlinesonly="true"
       color="#e51aa1"
       opacity="0.14901961"
       empcolor="#0065ff"
       empopacity="0.25098039" />
  </sodipodi:namedview>
  <defs
     id="defs3">
    <style
       id="current-color-scheme"
       type="text/css">.ColorScheme-Text {
        color:#e0e0e0;
        stop-color:#e0e0e0;
      }
      .ColorScheme-Background {
        color:#2c2c2c;
        stop-color:#2c2c2c;
      }
      .ColorScheme-HeaderBackground {
        color:#242424;
        stop-color:#242424;
      }
      .ColorScheme-Highlight {
        color:#e0e0e0;
        stop-color:#e0e0e0;
      }</style>
    <radialGradient
       inkscape:collect="always"
       xlink:href="#shadow_active"
       id="radialGradient965"
       gradientUnits="userSpaceOnUse"
       gradientTransform="matrix(-4.0000019,3.2964352e-6,1.0208917e-6,-4.799999,688.08329,1147.8707)"
       cx="48.27084"
       cy="178.72313"
       fx="48.27084"
       fy="178.72313"
       r="17.5" />
    <linearGradient
       inkscape:collect="always"
       xlink:href="#shadow_active"
       id="linearGradient5688"
       gradientUnits="userSpaceOnUse"
       gradientTransform="matrix(1,0,0,1.0117647,0,137.2353)"
       x1="398"
       y1="138.13953"
       x2="398"
       y2="221.16278" />
    <radialGradient
       inkscape:collect="always"
       xlink:href="#shadow_inactive"
       id="radialGradient967"
       gradientUnits="userSpaceOnUse"
       gradientTransform="matrix(-2.5714291,8.7200345e-7,-2.0148289e-7,-1.9428564,594.12508,638.00067)"
       cx="48.270844"
       cy="181.17691"
       fx="48.270844"
       fy="181.17691"
       r="17.5" />
    <linearGradient
       inkscape:collect="always"
       xlink:href="#shadow_inactive"
       id="linearGradient5688-2"
       gradientUnits="userSpaceOnUse"
       gradientTransform="matrix(1,0,0,1.0117647,0,137.15731)"
       x1="398"
       y1="138.13954"
       x2="398"
       y2="171.74419" />
    <linearGradient
       id="shadow_active">
      <stop
         id="stop7028"
         offset="0"
         style="stop-color:#000000;stop-opacity:0.92168677;" />
      <stop
         id="stop7026"
         offset="0.125"
         style="stop-color:#000000;stop-opacity:0.74096388;" />
      <stop
         id="stop6834"
         offset="0.25"
         style="stop-color:#000000;stop-opacity:0.60240966;" />
      <stop
         id="stop6832"
         offset="0.5"
         style="stop-color:#000000;stop-opacity:0.33132529;" />
      <stop
         style="stop-color:#000000;stop-opacity:0.10843374;"
         offset="0.75"
         id="stop6836" />
      <stop
         id="stop6894"
         offset="0.875"
         style="stop-color:#000000;stop-opacity:0.03921569;" />
      <stop
         id="stop6721"
         offset="1"
         style="stop-color:#000000;stop-opacity:0;" />
    </linearGradient>
    <linearGradient
       inkscape:collect="always"
       xlink:href="#shadow_active"
       id="linearGradient6612"
       gradientUnits="userSpaceOnUse"
       gradientTransform="matrix(1,0,0,1.0285694,-215,50.00005)"
       x1="396"
       y1="64.166748"
       x2="396"
       y2="14.583314" />
    <linearGradient
       id="shadow_inactive">
      <stop
         style="stop-color:#000000;stop-opacity:1;"
         offset="0"
         id="stop6719-25" />
      <stop
         id="stop6834-1"
         offset="0.25"
         style="stop-color:#000000;stop-opacity:0.63855422;" />
      <stop
         id="stop6832-0"
         offset="0.5"
         style="stop-color:#000000;stop-opacity:0.33734939;" />
      <stop
         style="stop-color:#000000;stop-opacity:0.10843374;"
         offset="0.75"
         id="stop6836-0" />
      <stop
         id="stop6894-7"
         offset="0.875"
         style="stop-color:#000000;stop-opacity:0.03921569;" />
      <stop
         id="stop6721-4"
         offset="1"
         style="stop-color:#000000;stop-opacity:0;" />
    </linearGradient>
    <linearGradient
       inkscape:collect="always"
       xlink:href="#shadow_inactive"
       id="linearGradient6612-5"
       gradientUnits="userSpaceOnUse"
       gradientTransform="translate(200,5)"
       x1="396"
       y1="66"
       x2="396"
       y2="30" />
    <linearGradient
       inkscape:collect="always"
       xlink:href="#shadow_active"
       id="linearGradient1126"
       gradientUnits="userSpaceOnUse"
       gradientTransform="matrix(1.0133333,0,0,1,-3.2650058,140)"
       x1="348.49344"
       y1="99"
       x2="279.41449"
       y2="99" />
    <radialGradient
       inkscape:collect="always"
       xlink:href="#shadow_active"
       id="radialGradient1306"
       gradientUnits="userSpaceOnUse"
       gradientTransform="matrix(9.4919759e-7,-2.9142759,4.0000007,1.1504403e-6,-211.66707,980.01628)"
       cx="296.47726"
       cy="80.416679"
       fx="296.47726"
       fy="80.416679"
       r="17.5" />
    <linearGradient
       inkscape:collect="always"
       xlink:href="#shadow_inactive"
       id="linearGradient1389"
       gradientUnits="userSpaceOnUse"
       gradientTransform="matrix(1.0133333,0,0,1,-3.2650058,140)"
       x1="348.49344"
       y1="99.01548"
       x2="304.08554"
       y2="99.01548" />
    <radialGradient
       inkscape:collect="always"
       xlink:href="#shadow_inactive"
       id="radialGradient969"
       gradientUnits="userSpaceOnUse"
       gradientTransform="matrix(-3.7607938e-7,-2.0571166,2.5714318,-5.1233137e-7,263.21413,725.83432)"
       cx="296.45123"
       cy="80.416672"
       fx="296.45123"
       fy="80.416672"
       r="17.5" />
  </defs>
  <g
     id="decoration-bottom"
     transform="translate(-215,-81)">
    <path
       style="opacity:0.5;fill:url(#linearGradient5688);fill-opacity:1;stroke:none;stroke-width:1.00587"
       d="m 325,289 v 73 h 145 v -73 z"
       id="path6217-8" />
    <path
       id="path6214-7"
       d="M 470,289 H 325 v 1 h 145 z"
       style="opacity:0.75;fill:#000000;fill-opacity:1;stroke:none;stroke-width:0.413845"
       inkscape:connector-curvature="0" />
    <path
       id="path6211-7"
       d="M 470,277 H 325 v 12 h 145 z"
       class="ColorScheme-Background"
       fill="currentColor"
       style="opacity:0.9" />
  </g>
  <g
     id="decoration-inactive-bottom"
     transform="translate(145,-80.92202)">
    <path
       style="opacity:0.5;fill:url(#linearGradient5688-2);fill-opacity:1;stroke:none;stroke-width:1.00587"
       d="m 325,288.92202 v 73 h 145 v -73 z"
       id="path6217-8-2" />
    <path
       id="path6214-7-4"
       d="M 470,288.92202 H 325 v 1 h 145 z"
       style="opacity:0.75;fill:#000000;fill-opacity:1;stroke:none;stroke-width:0.392425"
       inkscape:connector-curvature="0" />
    <path
       id="path6211-7-5"
       d="M 470,276.92202 H 325 v 12 h 145 z"
       class="ColorScheme-Background"
       fill="currentColor"
       style="opacity:0.9" />
  </g>
  <g
     transform="translate(-385,-94.000015)"
     id="decoration-bottomleft">
    <path
       id="rect7023-1"
       d="m 81,196 c 0,6.648 5.352,12 12,12 h 17 v -12 z"
       transform="translate(385,94.000015)"
       class="ColorScheme-Background"
       fill="currentColor"
       style="opacity:0.9" />
    <path
       id="rect5099-9-5"
       style="opacity:0.5;fill:url(#radialGradient965);fill-opacity:1;stroke:none"
       d="M 424,290.00001 V 375 h 71 v -72.99999 h -17 c -6.648,0 -12,-5.352 -12,-12 z" />
    <g
       id="g6659-3-3-0"
       transform="matrix(1,0,0,0.99932111,145,13.317125)" />
    <path
       id="path168"
       style="opacity:0.75;fill:#000000;fill-opacity:1;stroke:none"
       d="m 465,290.00001 c 0,7.202 5.798,13 13,13 h 17 v -1 h -17 c -6.648,0 -12,-5.352 -12,-12 z" />
  </g>
  <g
     id="decoration-inactive-bottomleft"
     transform="translate(0,-90)">
    <path
       id="path4207"
       d="m 441,196 c 0,6.648 5.352,12 12,12 h 14 3 v -12 z"
       transform="translate(0,90)"
       class="ColorScheme-Background"
       fill="currentColor"
       style="opacity:0.9" />
    <path
       id="rect5099-9-6"
       style="opacity:0.5;fill:url(#radialGradient967);fill-opacity:1;stroke:none"
       d="m 399,286 v 84.99999 h 71 V 298 h -3 -14 c -6.648,0 -12,-5.35201 -12,-12 z"
       sodipodi:nodetypes="cccccscc" />
    <g
       id="g6659-3-3-4"
       transform="matrix(1,0,0,0.99932111,120,9.3796146)" />
    <path
       id="path188"
       style="opacity:0.75;fill:#000000;fill-opacity:1;stroke:none"
       d="m 440,286 c 0,7.20199 5.798,13 13,13 h 14 l 3,-2e-5 V 298 h -3 -14 c -6.648,0 -12,-5.35201 -12,-12 z"
       sodipodi:nodetypes="csccccscc" />
  </g>
  <use
     x="0"
     y="0"
     xlink:href="#decoration-bottomleft"
     id="decoration-bottomright"
     transform="matrix(-1,0,0,1,365,0)"
     width="100%"
     height="100%" />
  <use
     x="0"
     y="0"
     xlink:href="#decoration-inactive-bottomleft"
     id="decoration-inactive-bottomright"
     transform="matrix(-1,0,0,1,1085,0)"
     width="100%"
     height="100%" />
  <g
     id="decoration-inactive-center"
     transform="translate(0,-90)">
    <path
       class="ColorScheme-HeaderBackground"
       fill="currentColor"
       d="m 470,200 v 86 h 145 v -86 z"
       id="path40329" />
  </g>
  <use
     x="0"
     y="0"
     xlink:href="#decoration-left"
     id="decoration-right"
     transform="matrix(-1,0,0,1,365,0)"
     width="100%"
     height="100%" />
  <g
     id="decoration-inactive-topleft"
     transform="translate(140,-121.063)">
    <path
       id="rect6520-3-2-6"
       style="opacity:0.5;fill:url(#radialGradient969);fill-opacity:1;stroke:none"
       d="m 399,64 v 52 h 42 V 98 c 0,-6.648 5.352,-12 12,-12 h 17 V 64 Z"
       transform="translate(-140,115.063)"
       sodipodi:nodetypes="cccssccc" />
    <path
       id="rect5073-4-9-6"
       class="ColorScheme-HeaderBackground"
       fill="currentColor"
       d="m 313,201.063 c -6.648,0 -12,5.352 -12,12 v 17.93555 0.0644 h 29 v -30 z" />
    <path
       id="path955"
       style="opacity:0.05;fill:#ffffff;fill-opacity:1;stroke:none;stroke-width:1"
       d="m 313,201.063 c -6.648,0 -12,5.352 -12,12 v 1 c 0,-6.648 5.352,-12 12,-12 h 17 v -1 z" />
    <path
       id="path202"
       style="opacity:0.75;fill:#000000;fill-opacity:1;stroke:none"
       d="m 453,79 c -7.202,0 -13,5.798 -13,13 v 18 h 1 V 92 c 0,-6.648 5.352,-12 12,-12 h 17 v -1 z"
       transform="translate(-140,121.063)" />
  </g>
  <path
     class="ColorScheme-HeaderBackground"
     fill="currentColor"
     d="m 110,110 v 86 h 145 v -86 z"
     id="decoration-center" />
  <g
     id="decoration-top"
     transform="translate(-215,-95.99995)">
    <path
       id="path6055-5"
       style="opacity:0.5;fill:url(#linearGradient6612);fill-opacity:1;stroke:none;stroke-width:1.01418"
       d="M 110,64 V 86 H 255 V 64 Z"
       transform="translate(215,89.99995)"
       sodipodi:nodetypes="ccccc" />
    <path
       id="path6098-4"
       style="opacity:0.75;fill:#000000;fill-opacity:1;stroke:none"
       d="m 110,85 v 1 h 145 v -1 z"
       transform="translate(215,89.99995)" />
    <path
       class="ColorScheme-HeaderBackground"
       fill="currentColor"
       d="m 325,175.99994 v 30.00002 h 145 v -30.00002 z"
       id="path6092-3" />
    <path
       sodipodi:nodetypes="ccccc"
       inkscape:connector-curvature="0"
       id="path966"
       d="m 325,175.99994 v 1.00001 h 145 v -1.00001 z"
       style="opacity:0.1;fill:#ffffff;fill-opacity:1;stroke:none;stroke-width:0.182575" />
  </g>
  <g
     id="decoration-left"
     transform="translate(-239.875,-87)">
    <path
       style="opacity:0.5;fill:url(#linearGradient1126);fill-opacity:1;stroke:none;stroke-width:1.00664"
       d="m 278.875,197 v 86 h 42 v -86 z"
       id="path6345-1" />
    <path
       id="path6342-6"
       style="opacity:0.75;fill:#000000;fill-opacity:1;stroke:none"
       d="m 80,116 v 86 h 1 v -86 z"
       transform="translate(239.875,81)" />
    <path
       class="ColorScheme-HeaderBackground"
       fill="currentColor"
       d="m 576,121 v 86 h 29 v -86 z"
       id="path6339-9"
       transform="translate(-255.125,76)" />
  </g>
  <g
     id="decoration-inactive-top"
     transform="translate(145,-96)">
    <path
       style="opacity:0.5;fill:url(#linearGradient6612-5);fill-opacity:1;stroke:none"
       d="M 525,19 V 41 H 670 V 19 Z"
       transform="translate(-200,135)"
       id="path6055-5-5"
       inkscape:connector-curvature="0"
       sodipodi:nodetypes="ccccc" />
    <path
       transform="translate(-145,90)"
       d="m 470,85 v 1 h 145 v -1 z"
       style="opacity:0.75;fill:#000000;fill-opacity:1;stroke:none"
       id="path6098-4-8" />
    <path
       class="ColorScheme-HeaderBackground"
       fill="currentColor"
       d="m 325,176 v 30 h 145 v -30 z"
       id="path6092-3-3" />
    <path
       style="opacity:0.05;fill:#ffffff;fill-opacity:1;stroke:none;stroke-width:0.182574"
       d="m 325,176 v 1 h 145 v -1 z"
       id="path996"
       inkscape:connector-curvature="0"
       sodipodi:nodetypes="ccccc" />
  </g>
  <g
     id="decoration-inactive-left"
     transform="translate(120.125,-87.01548)">
    <path
       style="opacity:0.5;fill:url(#linearGradient1389);fill-opacity:1;stroke:none;stroke-width:1.00664"
       d="m 278.875,197.01548 v 86 l 42,-0.0155 v -85.98452 z"
       id="path6345-1-1"
       inkscape:connector-curvature="0"
       sodipodi:nodetypes="ccccc" />
    <path
       id="path6342-6-6"
       d="m 319.875,197.01548 v 86 h 1 v -86 z"
       style="opacity:0.75;fill:#000000;fill-opacity:1;stroke:none;stroke-width:0.447214"
       inkscape:connector-curvature="0" />
    <path
       class="ColorScheme-HeaderBackground"
       fill="currentColor"
       d="m 320.875,197.01548 v 86 h 29 v -86 z"
       id="path6339-9-9" />
  </g>
  <rect
     style="fill:#ff00ff;fill-opacity:1;stroke:none;stroke-width:0.341565"
     id="shadow-hint-top-margin"
     width="4"
     height="21"
     x="174"
     y="58" />
  <rect
     style="fill:#ff00ff;fill-opacity:1;stroke:none;stroke-width:1.08263"
     id="shadow-hint-bottom-margin"
     width="4"
     height="72"
     x="175"
     y="209" />
  <rect
     style="fill:#ff00ff;fill-opacity:1;stroke:none;stroke-width:0.698638"
     id="shadow-hint-right-margin"
     width="41"
     height="4"
     x="285"
     y="140" />
  <rect
     style="fill:#ff00ff;fill-opacity:1;stroke:none;stroke-width:0.519361"
     id="shadow-hint-left-margin"
     width="41"
     height="4"
     x="39"
     y="134" />
  <rect
     id="hint-top-margin"
     width="4"
     height="52"
     x="186"
     y="58"
     style="fill:#00ff29;fill-opacity:1;stroke:none;stroke-width:0.962763" />
  <rect
     id="hint-bottom-margin"
     width="4"
     height="85"
     x="187"
     y="196"
     style="fill:#00ff29;fill-opacity:1;stroke:none;stroke-width:1.04257" />
  <rect
     id="hint-right-margin"
     width="4"
     height="71"
     x="129"
     y="-326"
     transform="rotate(90)"
     style="fill:#00ff29;fill-opacity:1;stroke:none;stroke-width:1.08465" />
  <rect
     id="hint-left-margin"
     width="4"
     height="71"
     x="126"
     y="-110"
     transform="rotate(90)"
     style="fill:#00ff29;fill-opacity:1;stroke:none;stroke-width:0.892451" />
  <g
     transform="matrix(-1,0,0,1,535,-121.0625)"
     id="decoration-topleft">
    <path
       id="path1019"
       style="opacity:0.5;fill:url(#radialGradient1306);fill-opacity:1;stroke:none"
       d="m 39,64 v 52 H 81 V 98 c 0,-6.648 5.352,-12 12,-12 h 17 V 64 Z"
       transform="matrix(-1,0,0,1,535,115.0625)" />
    <path
       id="path1023"
       class="ColorScheme-HeaderBackground"
       fill="currentColor"
       d="m 442,201.0625 c 6.648,0 12,5.352 12,12 v 18 h -29 v -30 z" />
    <path
       d="m 442,201.0625 c 6.648,0 12,5.352 12,12 v 0.59961 c 0,-6.4264 -5.352,-11.59961 -12,-11.59961 h -17 v -1 z"
       style="opacity:0.1;fill:#ffffff;fill-opacity:1;stroke:none;stroke-width:1"
       id="path961" />
    <path
       id="path187"
       style="opacity:0.75;fill:#000000;fill-opacity:1;stroke:none"
       d="m 93,85 c -7.202,0 -13,5.798 -13,13 v 18 h 1 V 98 c 0,-6.648 5.352,-12 12,-12 h 17 v -1 z"
       transform="matrix(-1,0,0,1,535,115.0625)" />
  </g>
  <use
     x="0"
     y="0"
     xlink:href="#decoration-topleft"
     id="decoration-topright"
     transform="matrix(-1,0,0,1,365,0)"
     width="100%"
     height="100%" />
  <use
     x="0"
     y="0"
     xlink:href="#decoration-inactive-topleft"
     id="decoration-inactive-topright"
     transform="matrix(-1,0,0,1,1085,0)"
     width="100%"
     height="100%" />
  <use
     x="0"
     y="0"
     xlink:href="#decoration-inactive-left"
     id="decoration-inactive-right"
     transform="matrix(-1,0,0,1,1085,0)"
     width="100%"
     height="100%" />
  <g
     id="mask-right"
     transform="matrix(-1,0,0,1,1314.875,-87)">
    <path
       d="m 278.875,197 v 86 h 42 v -86 z"
       id="path2127"
       style="fill:none" />
    <path
       d="m 576,121 v 86 h 29 v -86 z"
       id="path2131"
       transform="translate(-255.125,76)" />
  </g>
  <path
     d="m 820,110 v 86 h 145 v -86 z"
     id="mask-center" />
  <g
     id="mask-top"
     transform="translate(495,-95.99995)">
    <path
       id="path1415"
       d="M 110,64 V 86 H 255 V 64 Z"
       transform="translate(215,89.99995)"
       style="fill:none" />
    <path
       d="m 325,175.99994 v 30.00002 h 145 v -30.00002 z"
       id="path1419" />
  </g>
  <g
     id="mask-left"
     transform="translate(470.125,-87)">
    <path
       d="m 278.875,197 v 86 h 42 v -86 z"
       id="path1425"
       style="fill:none" />
    <path
       d="m 576,121 v 86 h 29 v -86 z"
       id="path1429"
       transform="translate(-255.125,76)" />
  </g>
  <g
     transform="matrix(-1,0,0,1,1245,-121.0625)"
     id="mask-topleft">
    <path
       id="path1439"
       d="m 39,64 v 52 H 81 V 98 c 0,-6.648 5.352,-12 12,-12 h 17 V 64 Z"
       transform="matrix(-1,0,0,1,535,115.0625)"
       style="fill:none" />
    <path
       id="path1441"
       d="m 442,201.0625 c 6.648,0 12,5.352 12,12 v 18 h -29 v -30 z" />
  </g>
  <g
     transform="translate(540,-121.0625)"
     id="mask-topright">
    <path
       id="path2121"
       d="m 39,64 v 52 H 81 V 98 c 0,-6.648 5.352,-12 12,-12 h 17 V 64 Z"
       transform="matrix(-1,0,0,1,535,115.0625)"
       style="fill:none" />
    <path
       id="path2123"
       d="m 442,201.0625 c 6.648,0 12,5.352 12,12 v 18 h -29 v -30 z" />
  </g>
  <g
     id="mask-bottom"
     transform="translate(495,-80.92202)">
    <path
       d="m 325,288.92202 v 73 h 145 v -73 z"
       id="path2525"
       style="fill:none" />
    <path
       id="path2529"
       d="M 470,276.92202 H 325 v 12 h 145 z" />
  </g>
  <g
     id="mask-bottomleft"
     transform="translate(350,-90)">
    <path
       id="path2533"
       d="m 441,196 c 0,6.648 5.352,12 12,12 h 14 3 v -12 z"
       transform="translate(0,90)" />
    <path
       id="path2535"
       d="m 399,286 v 84.99999 h 71 V 298 h -3 -14 c -6.648,0 -12,-5.35201 -12,-12 z"
       style="fill:none" />
    <g
       id="g2537"
       transform="matrix(1,0,0,0.99932111,120,9.3796146)" />
  </g>
  <g
     id="mask-bottomright"
     transform="matrix(-1,0,0,1,1435,-90)">
    <path
       id="path2629"
       d="m 441,196 c 0,6.648 5.352,12 12,12 h 14 3 v -12 z"
       transform="translate(0,90)" />
    <path
       id="path2631"
       d="m 399,286 v 84.99999 h 71 V 298 h -3 -14 c -6.648,0 -12,-5.35201 -12,-12 z"
       style="fill:none" />
    <g
       id="g2633"
       transform="matrix(1,0,0,0.99932111,120,9.3796146)" />
  </g>
</svg>
