<?xml version="1.0" encoding="UTF-8" standalone="no"?>
<svg
   width="24"
   height="24"
   id="svg4428"
   version="1.1"
   inkscape:version="1.1.2 (0a00cf5339, 2022-02-04, custom)"
   sodipodi:docname="close.svg"
   xmlns:inkscape="http://www.inkscape.org/namespaces/inkscape"
   xmlns:sodipodi="http://sodipodi.sourceforge.net/DTD/sodipodi-0.dtd"
   xmlns:xlink="http://www.w3.org/1999/xlink"
   xmlns="http://www.w3.org/2000/svg"
   xmlns:svg="http://www.w3.org/2000/svg">
  <defs
     id="defs3">
    <style
       id="current-color-scheme"
       type="text/css">.ColorScheme-Text {
        color:#e0e0e0;
        stop-color:#e0e0e0;
      }
      .ColorScheme-Background {
        color:#2c2c2c;
        stop-color:#2c2c2c;
      }
      .ColorScheme-HeaderBackground {
        color:#242424;
        stop-color:#242424;
      }
      .ColorScheme-Highlight {
        color:#e0e0e0;
        stop-color:#e0e0e0;
      }</style>
  </defs>
  <sodipodi:namedview
     id="base"
     pagecolor="#949494"
     bordercolor="#666666"
     borderopacity="1.0"
     inkscape:pageopacity="1"
     inkscape:pageshadow="2"
     inkscape:zoom="3.0598356"
     inkscape:cx="60.297357"
     inkscape:cy="2.2877046"
     inkscape:document-units="px"
     inkscape:current-layer="layer1"
     showgrid="true"
     inkscape:snap-bbox="true"
     inkscape:window-width="1440"
     inkscape:window-height="748"
     inkscape:window-x="0"
     inkscape:window-y="28"
     inkscape:window-maximized="1"
     showborder="true"
     inkscape:showpageshadow="false"
     inkscape:snap-nodes="false"
     inkscape:bbox-nodes="true"
     inkscape:snap-bbox-edge-midpoints="false"
     inkscape:snap-global="true"
     inkscape:pagecheckerboard="0">
    <inkscape:grid
       type="xygrid"
       id="grid4436"
       empspacing="5"
       visible="true"
       enabled="true"
       snapvisiblegridlinesonly="true"
       originx="0"
       originy="0"
       spacingx="1.0666667"
       spacingy="1.0666667" />
  </sodipodi:namedview>
  <g
     inkscape:label="Layer 1"
     inkscape:groupmode="layer"
     id="layer1"
     transform="translate(0,-1098.5197)">
    <use
       x="0"
       y="0"
       xlink:href="#inactive-center"
       id="deactivated-center"
       transform="translate(-0.21336753,-26.948412)"
       width="100%"
       height="100%" />
    <use
       height="100%"
       width="100%"
       transform="translate(28.709753,-26.948412)"
       id="deactivated-inactive-center"
       xlink:href="#inactive-center"
       y="0"
       x="0" />
    <circle
       style="fill:#fd5f51;fill-opacity:1;stroke-width:8;stroke-linecap:round;stroke-linejoin:round;paint-order:stroke fill markers"
       id="active-center"
       cx="-27.733339"
       cy="1111.853"
       r="8" />
    <circle
       id="inactive-center"
       cx="92.266663"
       cy="1111.853"
       r="8"
       class="ColorScheme-Text"
       fill="currentColor"
       style="opacity:0.3" />
    <g
       id="hover-center"
       transform="translate(123.31733,23.039191)">
      <circle
         style="fill:#fd5f51;fill-opacity:1;stroke-width:8;stroke-linecap:round;stroke-linejoin:round;paint-order:stroke fill markers"
         id="circle2545"
         cx="-111.05067"
         cy="1088.8138"
         r="8" />
      <path
         d="m -114.58592,1084.7787 c -0.12775,0 -0.2555,0.049 -0.35339,0.1465 -0.19578,0.1959 -0.19578,0.5112 0,0.707 l 3.1816,3.1816 -3.1816,3.1816 c -0.19578,0.1959 -0.19578,0.5112 0,0.7071 0.19578,0.1958 0.51118,0.1958 0.70704,0 l 3.1816,-3.1816 3.1816,3.1816 c 0.19578,0.1958 0.51114,0.1958 0.70704,0 0.19578,-0.1959 0.19578,-0.5112 0,-0.7071 l -3.1816,-3.1816 3.1816,-3.1816 c 0.19578,-0.1958 0.19578,-0.5111 0,-0.707 -0.19578,-0.1959 -0.51118,-0.1959 -0.70704,0 l -3.1816,3.1816 -3.1816,-3.1816 c -0.0979,-0.098 -0.22564,-0.1465 -0.35339,-0.1465 z"
         style="fill:#ffffff;paint-order:stroke fill markers"
         id="path2869" />
    </g>
    <g
       id="pressed-center"
       transform="translate(123.31733,23.039191)">
      <circle
         style="fill:#fd5f51;fill-opacity:1;stroke-width:8;stroke-linecap:round;stroke-linejoin:round;paint-order:stroke fill markers"
         id="circle2547"
         cx="-71.050667"
         cy="1088.8138"
         r="8" />
      <circle
         style="opacity:0.25;fill:#ffffff;fill-opacity:1;stroke-width:8;stroke-linecap:round;stroke-linejoin:round;paint-order:stroke fill markers"
         id="circle2807"
         cx="-71.050667"
         cy="1088.8138"
         r="8" />
      <path
         d="m -74.58593,1084.7787 c -0.12775,0 -0.2555,0.049 -0.35339,0.1465 -0.19578,0.1959 -0.19578,0.5112 0,0.707 l 3.1816,3.1816 -3.1816,3.1816 c -0.19578,0.1959 -0.19578,0.5112 0,0.7071 0.19578,0.1958 0.51118,0.1958 0.70704,0 l 3.18161,-3.1816 3.1816,3.1816 c 0.19578,0.1958 0.51114,0.1958 0.70704,0 0.19578,-0.1959 0.19578,-0.5112 0,-0.7071 l -3.1816,-3.1816 3.1816,-3.1816 c 0.19578,-0.1958 0.19578,-0.5111 0,-0.707 -0.19578,-0.1959 -0.51117,-0.1959 -0.70704,0 l -3.1816,3.1816 -3.18161,-3.1816 c -0.0979,-0.098 -0.22564,-0.1465 -0.35339,-0.1465 z"
         style="fill:#ffffff;paint-order:stroke fill markers"
         id="path2928" />
    </g>
    <g
       id="hover-inactive-center"
       transform="translate(123.31733,54.817039)">
      <circle
         id="circle1291"
         cx="-111.05067"
         cy="1088.8138"
         r="8"
         class="ColorScheme-Text"
         fill="currentColor"
         style="opacity:0.3" />
      <path
         d="m -114.58592,1084.7787 c -0.12775,0 -0.2555,0.049 -0.35339,0.1465 -0.19578,0.1959 -0.19578,0.5112 0,0.707 l 3.1816,3.1816 -3.1816,3.1816 c -0.19578,0.1959 -0.19578,0.5112 0,0.7071 0.19578,0.1958 0.51118,0.1958 0.70704,0 l 3.1816,-3.1816 3.1816,3.1816 c 0.19578,0.1958 0.51114,0.1958 0.70704,0 0.19578,-0.1959 0.19578,-0.5112 0,-0.7071 l -3.1816,-3.1816 3.1816,-3.1816 c 0.19578,-0.1958 0.19578,-0.5111 0,-0.707 -0.19578,-0.1959 -0.51118,-0.1959 -0.70704,0 l -3.1816,3.1816 -3.1816,-3.1816 c -0.0979,-0.098 -0.22564,-0.1465 -0.35339,-0.1465 z"
         style="fill:#ffffff;paint-order:stroke fill markers"
         id="path1293" />
    </g>
  </g>
</svg>
