<?xml version="1.0" encoding="UTF-8" standalone="no"?>
<svg
   width="24"
   height="24"
   id="svg4428"
   version="1.1"
   inkscape:version="1.1.2 (0a00cf5339, 2022-02-04, custom)"
   sodipodi:docname="maximize.svg"
   xmlns:inkscape="http://www.inkscape.org/namespaces/inkscape"
   xmlns:sodipodi="http://sodipodi.sourceforge.net/DTD/sodipodi-0.dtd"
   xmlns:xlink="http://www.w3.org/1999/xlink"
   xmlns="http://www.w3.org/2000/svg"
   xmlns:svg="http://www.w3.org/2000/svg">
  <defs
     id="defs3">
    <style
       id="current-color-scheme"
       type="text/css">.ColorScheme-Text {
        color:#e0e0e0;
        stop-color:#e0e0e0;
      }
      .ColorScheme-Background {
        color:#2c2c2c;
        stop-color:#2c2c2c;
      }
      .ColorScheme-HeaderBackground {
        color:#242424;
        stop-color:#242424;
      }
      .ColorScheme-Highlight {
        color:#e0e0e0;
        stop-color:#e0e0e0;
      }</style>
  </defs>
  <sodipodi:namedview
     id="base"
     pagecolor="#eff0f1"
     bordercolor="#666666"
     borderopacity="1.0"
     inkscape:pageopacity="1"
     inkscape:pageshadow="2"
     inkscape:zoom="2.3143028"
     inkscape:cx="25.277591"
     inkscape:cy="44.505844"
     inkscape:document-units="px"
     inkscape:current-layer="layer1"
     showgrid="false"
     inkscape:snap-bbox="true"
     inkscape:window-width="1440"
     inkscape:window-height="748"
     inkscape:window-x="0"
     inkscape:window-y="28"
     inkscape:window-maximized="1"
     showborder="true"
     inkscape:showpageshadow="false"
     inkscape:pagecheckerboard="0">
    <inkscape:grid
       type="xygrid"
       id="grid4436"
       empspacing="5"
       visible="true"
       enabled="true"
       snapvisiblegridlinesonly="true"
       originx="0"
       originy="0"
       spacingx="1.0666667"
       spacingy="1.0666667" />
  </sodipodi:namedview>
  <g
     inkscape:label="Layer 1"
     inkscape:groupmode="layer"
     id="layer1"
     transform="translate(0,-1098.5197)">
    <g
       id="active-center"
       transform="matrix(1,0,0,0.99999607,-64.975606,467.10862)">
      <g
         id="use1849"
         transform="translate(0,41.000028)" />
      <circle
         style="opacity:1;fill:#38c76a;fill-opacity:1;stroke-width:8;stroke-linecap:round;stroke-linejoin:round;paint-order:stroke fill markers"
         id="circle2551"
         cx="37"
         cy="643.36212"
         r="8" />
    </g>
    <g
       id="hover-center"
       transform="matrix(1,0,0,0.99999607,-64.975606,467.10862)">
      <g
         id="use1851"
         transform="translate(40,41.000028)" />
      <circle
         style="opacity:1;fill:#38c76a;fill-opacity:1;stroke-width:8;stroke-linecap:round;stroke-linejoin:round;paint-order:stroke fill markers"
         id="circle2553"
         cx="77"
         cy="643.36212"
         r="8" />
      <path
         d="m 75,639.36212 c -1.108,0 -2,0.892 -2,2 v 4 c 0,1.108 0.89201,2 2,2 h 4 c 1.108,0 2,-0.892 2,-2 v -4 c 0,-1.108 -0.89201,-2 -2,-2 z m 0,1 h 4 c 0.554,0 1,0.44602 1,1 v 4 c 0,0.55398 -0.44602,1 -1,1 h -4 c -0.55397,0 -0.99999,-0.44602 -0.99999,-1 v -4 c 0,-0.55398 0.44602,-1 0.99999,-1 z"
         style="fill:#ffffff;paint-order:stroke fill markers"
         id="path2878" />
    </g>
    <g
       id="pressed-center"
       transform="matrix(1,0,0,0.99999607,-64.975606,467.10862)">
      <g
         id="use1853"
         transform="translate(80,41.000028)" />
      <circle
         style="opacity:1;fill:#38c76a;fill-opacity:1;stroke-width:8;stroke-linecap:round;stroke-linejoin:round;paint-order:stroke fill markers"
         id="circle2555"
         cx="117"
         cy="643.36212"
         r="8" />
      <circle
         style="opacity:0.25;fill:#ffffff;fill-opacity:1;stroke-width:8;stroke-linecap:round;stroke-linejoin:round;paint-order:stroke fill markers"
         id="circle2809"
         cx="117"
         cy="643.36212"
         r="8" />
      <path
         d="m 115,639.36212 c -1.108,0 -2,0.892 -2,2 v 4 c 0,1.108 0.89201,2 2,2 h 4 c 1.10801,0 2,-0.892 2,-2 v -4 c 0,-1.108 -0.89201,-2 -2,-2 z m 0,1 h 4 c 0.554,0 1,0.44602 1,1 v 4 c 0,0.55398 -0.44602,1 -1,1 h -4 c -0.55397,0 -0.99999,-0.44602 -0.99999,-1 v -4 c 0,-0.55398 0.44603,-1 0.99999,-1 z"
         style="fill:#ffffff;paint-order:stroke fill markers"
         id="path2930" />
    </g>
    <g
       id="hover-inactive-center"
       transform="matrix(1,0,0,0.99999607,-64.975606,499.54977)">
      <g
         id="g1666"
         transform="translate(40,41.000028)" />
      <circle
         id="circle1668"
         cx="77"
         cy="643.36212"
         r="8"
         class="ColorScheme-Text"
         fill="currentColor"
         style="opacity:0.3" />
      <path
         d="m 75,639.36212 c -1.108,0 -2,0.892 -2,2 v 4 c 0,1.108 0.89201,2 2,2 h 4 c 1.108,0 2,-0.892 2,-2 v -4 c 0,-1.108 -0.89201,-2 -2,-2 z m 0,1 h 4 c 0.554,0 1,0.44602 1,1 v 4 c 0,0.55398 -0.44602,1 -1,1 h -4 c -0.55397,0 -0.99999,-0.44602 -0.99999,-1 v -4 c 0,-0.55398 0.44602,-1 0.99999,-1 z"
         style="fill:#ffffff;paint-order:stroke fill markers"
         id="path1670" />
    </g>
    <use
       x="0"
       y="0"
       xlink:href="#inactive-center"
       id="deactivated-center"
       transform="translate(-0.21336753,-26.948412)"
       width="100%"
       height="100%" />
    <use
       height="100%"
       width="100%"
       transform="translate(28.709753,-26.948412)"
       id="deactivated-inactive-center"
       xlink:href="#inactive-center"
       y="0"
       x="0" />
    <circle
       id="inactive-center"
       cx="92.266663"
       cy="1111.853"
       r="8"
       class="ColorScheme-Text"
       fill="currentColor"
       style="opacity:0.3" />
  </g>
</svg>
