<?xml version="1.0" encoding="UTF-8" standalone="no"?>
<svg
   width="48"
   height="48"
   version="1.1"
   id="svg71"
   sodipodi:docname="action-overlays.svg"
   inkscape:version="1.2 (dc2aedaf03, 2022-05-15)"
   xmlns:inkscape="http://www.inkscape.org/namespaces/inkscape"
   xmlns:sodipodi="http://sodipodi.sourceforge.net/DTD/sodipodi-0.dtd"
   xmlns="http://www.w3.org/2000/svg"
   xmlns:svg="http://www.w3.org/2000/svg"
   xmlns:rdf="http://www.w3.org/1999/02/22-rdf-syntax-ns#"
   xmlns:cc="http://creativecommons.org/ns#"
   xmlns:dc="http://purl.org/dc/elements/1.1/">
  <metadata
     id="metadata77">
    <rdf:RDF>
      <cc:Work
         rdf:about="">
        <dc:format>image/svg+xml</dc:format>
        <dc:type
           rdf:resource="http://purl.org/dc/dcmitype/StillImage" />
      </cc:Work>
    </rdf:RDF>
  </metadata>
  <defs
     id="defs75">
    <style
       id="current-color-scheme">.ColorScheme-Text {
        color:#31363b;
        stop-color:#31363b;
      }
      .ColorScheme-Background {
        color:#eff0f1;
        stop-color:#eff0f1;
      }
      .ColorScheme-Highlight {
        color:#3daee9;
        stop-color:#3daee9;
      }
      .ColorScheme-ViewText {
        color:#31363b;
        stop-color:#31363b;
      }
      .ColorScheme-ViewBackground {
        color:#fcfcfc;
        stop-color:#fcfcfc;
      }
      .ColorScheme-ViewHover {
        color:#93cee9;
        stop-color:#93cee9;
      }
      .ColorScheme-ViewFocus{
        color:#3daee9;
        stop-color:#3daee9;
      }
      .ColorScheme-ButtonText {
        color:#31363b;
        stop-color:#31363b;
      }
      .ColorScheme-ButtonBackground {
        color:#eff0f1;
        stop-color:#eff0f1;
      }
      .ColorScheme-ButtonHover {
        color:#93cee9;
        stop-color:#93cee9;
      }
      .ColorScheme-ButtonFocus{
        color:#3daee9;
        stop-color:#3daee9;
      }</style>
  </defs>
  <sodipodi:namedview
     pagecolor="#ffffff"
     bordercolor="#666666"
     borderopacity="1"
     objecttolerance="10"
     gridtolerance="10"
     guidetolerance="10"
     inkscape:pageopacity="0"
     inkscape:pageshadow="2"
     inkscape:window-width="1366"
     inkscape:window-height="736"
     id="namedview73"
     showgrid="false"
     inkscape:zoom="6.9532167"
     inkscape:cx="19.990748"
     inkscape:cy="29.842303"
     inkscape:window-x="0"
     inkscape:window-y="0"
     inkscape:window-maximized="1"
     inkscape:current-layer="open-pressed"
     inkscape:pagecheckerboard="0"
     inkscape:showpageshadow="2"
     inkscape:deskcolor="#d1d1d1" />
  <g
     id="remove-normal"
     transform="translate(0,-18)">
    <rect
       style="opacity:0.001"
       width="16"
       height="16"
       x="0"
       y="34"
       id="rect2" />
    <path
       style="opacity:1;fill:currentColor"
       d="m 15,41.999999 a 6.9999999,6.9999999 0 0 1 -7,6.999999 6.9999999,6.9999999 0 0 1 -7,-6.999999 6.9999999,6.9999999 0 0 1 7,-7 6.9999999,6.9999999 0 0 1 7,7 z"
       id="path4"
       class="ColorScheme-ButtonBackground" />
    <rect
       style="fill:#ffffff"
       width="2"
       height="8"
       x="41"
       y="-12"
       transform="rotate(90)"
       id="rect6" />
  </g>
  <g
     id="add-normal"
     transform="translate(0,-18)">
    <rect
       style="opacity:0.001"
       width="16"
       height="16"
       x="0"
       y="18"
       id="rect9" />
    <path
       style="opacity:1;fill:currentColor"
       d="m 15,25.999999 a 6.9999999,6.9999999 0 0 1 -7,6.999999 6.9999999,6.9999999 0 0 1 -7,-6.999999 6.9999999,6.9999999 0 0 1 7,-7 6.9999999,6.9999999 0 0 1 7,7 z"
       id="path11"
       class="ColorScheme-ButtonBackground" />
    <rect
       style="fill:#ffffff"
       width="2"
       height="8"
       x="7"
       y="22"
       id="rect13" />
    <rect
       style="fill:#ffffff"
       width="2"
       height="8"
       x="25"
       y="-12"
       transform="rotate(90)"
       id="rect15" />
  </g>
  <g
     id="open-normal"
     transform="translate(0,-18)">
    <rect
       style="opacity:0.001"
       width="16"
       height="16"
       x="0"
       y="50"
       id="rect18" />
    <path
       style="opacity:1;fill:currentColor"
       d="m 15,57.999999 a 6.9999999,6.9999999 0 0 1 -7,6.999999 6.9999999,6.9999999 0 0 1 -7,-6.999999 6.9999999,6.9999999 0 0 1 7,-7 6.9999999,6.9999999 0 0 1 7,7 z"
       id="path20"
       class="ColorScheme-ButtonBackground" />
    <path
       style="fill:#ffffff"
       transform="matrix(1.0755682,0,0,0.77622444,-0.90681813,26.622351)"
       d="M 8.2810355,36.558561 10.140518,39.779279 12,42.999997 l -3.7189646,0 -3.7189647,0 1.8594824,-3.220718 z"
       id="path22" />
  </g>
  <g
     id="remove-hover"
     transform="translate(16,-18)">
    <rect
       style="opacity:0.001"
       width="16"
       height="16"
       x="0"
       y="34"
       id="rect25" />
    <path
       style="fill:currentColor"
       d="m 15,41.999999 a 6.9999999,6.9999999 0 0 1 -7,6.999999 6.9999999,6.9999999 0 0 1 -7,-6.999999 6.9999999,6.9999999 0 0 1 7,-7 6.9999999,6.9999999 0 0 1 7,7 z"
       id="path27"
       class="ColorScheme-ButtonHover" />
    <rect
       style="fill:#ffffff"
       width="2"
       height="8"
       x="41"
       y="-12"
       transform="rotate(90)"
       id="rect29" />
  </g>
  <g
     id="add-hover"
     transform="translate(16,-18)">
    <rect
       style="opacity:0.001"
       width="16"
       height="16"
       x="0"
       y="18"
       id="rect32" />
    <path
       style="fill:currentColor"
       d="m 15,25.999999 a 6.9999999,6.9999999 0 0 1 -7,6.999999 6.9999999,6.9999999 0 0 1 -7,-6.999999 6.9999999,6.9999999 0 0 1 7,-7 6.9999999,6.9999999 0 0 1 7,7 z"
       id="path34"
       class="ColorScheme-ButtonHover" />
    <rect
       style="fill:#ffffff"
       width="2"
       height="8"
       x="7"
       y="22"
       id="rect36" />
    <rect
       style="fill:#ffffff"
       width="2"
       height="8"
       x="25"
       y="-12"
       transform="rotate(90)"
       id="rect38" />
  </g>
  <g
     id="open-hover"
     transform="translate(16,-18)">
    <rect
       style="opacity:0.001"
       width="16"
       height="16"
       x="0"
       y="50"
       id="rect41" />
    <path
       style="fill:currentColor"
       d="m 15,57.999999 a 6.9999999,6.9999999 0 0 1 -7,6.999999 6.9999999,6.9999999 0 0 1 -7,-6.999999 6.9999999,6.9999999 0 0 1 7,-7 6.9999999,6.9999999 0 0 1 7,7 z"
       id="path43"
       class="ColorScheme-ButtonHover" />
    <path
       style="fill:#ffffff"
       transform="matrix(1.0755682,0,0,0.77622444,-0.90681813,26.622351)"
       d="M 8.2810355,36.558561 10.140518,39.779279 12,42.999997 l -3.7189646,0 -3.7189647,0 1.8594824,-3.220718 z"
       id="path45" />
  </g>
  <g
     id="remove-pressed"
     transform="translate(32,-18)">
    <rect
       style="opacity:0.00100002"
       width="16"
       height="16"
       x="0"
       y="34"
       id="rect48" />
    <path
       style="fill:currentColor"
       d="m 15,41.999999 a 6.9999999,6.9999999 0 0 1 -7,6.999999 6.9999999,6.9999999 0 0 1 -7,-6.999999 6.9999999,6.9999999 0 0 1 7,-7 6.9999999,6.9999999 0 0 1 7,7 z"
       id="path50"
       class="ColorScheme-Highlight" />
    <rect
       style="fill:#ffffff"
       width="2"
       height="8"
       x="41"
       y="-12"
       transform="rotate(90)"
       id="rect52" />
  </g>
  <g
     id="add-pressed"
     transform="translate(32,-18)">
    <rect
       style="opacity:0.00100002"
       width="16"
       height="16"
       x="0"
       y="18"
       id="rect55" />
    <path
       style="fill:currentColor"
       d="m 15,25.999999 a 6.9999999,6.9999999 0 0 1 -7,6.999999 6.9999999,6.9999999 0 0 1 -7,-6.999999 6.9999999,6.9999999 0 0 1 7,-7 6.9999999,6.9999999 0 0 1 7,7 z"
       id="path57"
       class="ColorScheme-Highlight" />
    <rect
       style="fill:#ffffff"
       width="2"
       height="8"
       x="7"
       y="22"
       id="rect59" />
    <rect
       style="fill:#ffffff"
       width="2"
       height="8"
       x="25"
       y="-12"
       transform="rotate(90)"
       id="rect61" />
  </g>
  <g
     id="open-pressed"
     transform="translate(32,-18)">
    <rect
       style="opacity:0.00100002"
       width="16"
       height="16"
       x="0"
       y="50"
       id="rect64" />
    <path
       style="fill:currentColor"
       d="m 15,57.999999 a 6.9999999,6.9999999 0 0 1 -7,6.999999 6.9999999,6.9999999 0 0 1 -7,-6.999999 6.9999999,6.9999999 0 0 1 7,-7 6.9999999,6.9999999 0 0 1 7,7 z"
       id="path66"
       class="ColorScheme-Highlight" />
    <path
       style="fill:#ffffff"
       transform="matrix(1.0755682,0,0,0.77622444,-0.90681813,26.622351)"
       d="M 8.2810355,36.558561 10.140518,39.779279 12,42.999997 H 8.2810354 4.5620707 l 1.8594824,-3.220718 z"
       id="path68" />
  </g>
</svg>
