<?xml version="1.0" encoding="UTF-8" standalone="no"?>
<svg
   width="76"
   height="66"
   version="1.1"
   id="svg85"
   sodipodi:docname="slider.svg"
   inkscape:version="1.2 (dc2aedaf03, 2022-05-15)"
   xmlns:inkscape="http://www.inkscape.org/namespaces/inkscape"
   xmlns:sodipodi="http://sodipodi.sourceforge.net/DTD/sodipodi-0.dtd"
   xmlns:xlink="http://www.w3.org/1999/xlink"
   xmlns="http://www.w3.org/2000/svg"
   xmlns:svg="http://www.w3.org/2000/svg"
   xmlns:rdf="http://www.w3.org/1999/02/22-rdf-syntax-ns#"
   xmlns:cc="http://creativecommons.org/ns#"
   xmlns:dc="http://purl.org/dc/elements/1.1/">
  <sodipodi:namedview
     id="namedview87"
     pagecolor="#ffffff"
     bordercolor="#666666"
     borderopacity="1.0"
     inkscape:showpageshadow="2"
     inkscape:pageopacity="0.0"
     inkscape:pagecheckerboard="0"
     inkscape:deskcolor="#d1d1d1"
     showgrid="true"
     inkscape:zoom="6.4175295"
     inkscape:cx="21.347779"
     inkscape:cy="22.983922"
     inkscape:window-width="1366"
     inkscape:window-height="736"
     inkscape:window-x="0"
     inkscape:window-y="0"
     inkscape:window-maximized="1"
     inkscape:current-layer="svg85" />
  <metadata
     id="metadata2">
    <rdf:RDF>
      <cc:Work
         rdf:about="">
        <dc:format>image/svg+xml</dc:format>
        <dc:type
           rdf:resource="http://purl.org/dc/dcmitype/StillImage" />
        <dc:title />
      </cc:Work>
    </rdf:RDF>
  </metadata>
  <defs
     id="defs9">
    <radialGradient
       id="radialGradient915"
       cx="41"
       cy="20"
       r="16"
       gradientUnits="userSpaceOnUse">
      <stop
         offset="0"
         id="stop4" />
      <stop
         stop-opacity="0"
         offset="1"
         id="stop6" />
    </radialGradient>
    <style
       id="current-color-scheme">.ColorScheme-Text {
        color:#31363b;
        stop-color:#31363b;
      }
      .ColorScheme-Background {
        color:#eff0f1;
        stop-color:#eff0f1;
      }
      .ColorScheme-Highlight {
        color:#3daee9;
        stop-color:#3daee9;
      }
      .ColorScheme-ViewText {
        color:#31363b;
        stop-color:#31363b;
      }
      .ColorScheme-ViewBackground {
        color:#fcfcfc;
        stop-color:#fcfcfc;
      }
      .ColorScheme-ViewHover {
        color:#93cee9;
        stop-color:#93cee9;
      }
      .ColorScheme-ViewFocus{
        color:#3daee9;
        stop-color:#3daee9;
      }
      .ColorScheme-ButtonText {
        color:#31363b;
        stop-color:#31363b;
      }
      .ColorScheme-ButtonBackground {
        color:#eff0f1;
        stop-color:#eff0f1;
      }
      .ColorScheme-ButtonHover {
        color:#93cee9;
        stop-color:#93cee9;
      }
      .ColorScheme-ButtonFocus{
        color:#3daee9;
        stop-color:#3daee9;
      }</style>
  </defs>
  <g
     id="vertical-slider-handle"
     transform="matrix(.75 0 0 .75 -18.75 -3)"
     stroke-width=".91667">
    <rect
       x="25"
       y="4"
       width="32"
       height="32"
       opacity="0"
       id="rect11" />
    <circle
       cx="41"
       cy="20"
       r="16"
       id="circle13"
       style="opacity:0" />
    <circle
       cx="41"
       cy="20"
       r="9.3333"
       id="circle15"
       class="ColorScheme-Text"
       fill="currentColor" />
  </g>
  <g
     id="vertical-slider-hover"
     transform="matrix(0.75,0,0,0.75,5.25,-3)"
     stroke-width="0.91667">
    <circle
       cx="41"
       cy="20"
       r="16"
       id="circle20"
       class="ColorScheme-ButtonHover"
       fill="currentColor"
       opacity="0.6" />
    <rect
       x="25"
       y="4"
       width="32"
       height="32"
       opacity="0"
       id="rect22" />
    <circle
       cx="41"
       cy="20"
       r="9.3332996"
       id="circle24"
       class="ColorScheme-ButtonHover"
       fill="currentColor" />
  </g>
  <g
     id="vertical-slider-focus"
     transform="matrix(0.75,0,0,0.75,29.25,-3)"
     stroke-width="0.91667">
    <circle
       cx="41"
       cy="20"
       r="16"
       id="circle29"
       class="ColorScheme-ButtonFocus"
       fill="currentColor"
       opacity="0.6" />
    <rect
       x="25"
       y="4"
       width="32"
       height="32"
       opacity="0"
       id="rect31" />
    <circle
       cx="41"
       cy="20"
       r="9.3332996"
       id="circle33"
       class="ColorScheme-ButtonFocus"
       fill="currentColor" />
  </g>
  <rect
     id="hint-tile-center"
     x="10"
     y="-24"
     width="12"
     height="12"
     rx="0"
     ry="12"
     fill="#4e9a06"
     stroke-width="6" />
  <circle
     id="hint-handle-size"
     cx="49"
     cy="-17"
     fill="#ff2a2a"

     r="10" />
  <g
     id="g478"
     class="ColorScheme-Highlight"
     fill="currentColor"
     opacity="0.2"
     transform="translate(0,78)">
    <g
       id="groove-topleft"
       transform="matrix(0.5,0,0,0.5,0.5,-12)">
      <path
         d="m 7,-24 c -3.3644,0 -6,2.6356 -6,6 h 6 z"
         id="path38" />
    </g>
    <path
       id="groove-center"
       d="m 6,-19 v 1 h 3 v -1 z" />
    <g
       id="groove-top"
       transform="matrix(1,0,0,0.5,-1,-12)">
      <path
         d="m 7,-24 v 6 h 3 v -6 z"
         id="path62" />
    </g>
    <use
       id="groove-topright"
       transform="matrix(-1,0,0,1,15,-8e-8)"
       width="100%"
       height="100%"
       xlink:href="#groove-topleft" />
    <g
       id="groove-left"
       transform="matrix(0.5,0,0,1,0.5,-1)">
      <path
         d="m 1,-18 v 1 h 6 v -1 z"
         id="path68" />
    </g>
    <use
       id="groove-right"
       transform="matrix(-1,0,0,1,15,-8e-8)"
       width="100%"
       height="100%"
       xlink:href="#groove-left" />
    <use
       id="groove-bottomleft"
       transform="matrix(1,0,0,-1,0,-37)"
       width="100%"
       height="100%"
       xlink:href="#groove-topleft" />
    <use
       id="groove-bottomright"
       transform="rotate(180,7.5,-18.5)"
       width="100%"
       height="100%"
       xlink:href="#groove-topleft" />
    <use
       id="groove-bottom"
       transform="matrix(1,0,0,-1,0,-37)"
       width="100%"
       height="100%"
       xlink:href="#groove-top" />
  </g>
  <g
     id="g497"
     class="ColorScheme-Highlight"
     fill="currentColor"
     transform="translate(0,78)">
    <g
       id="groove-highlight-top"
       transform="matrix(1,0,0,0.6,-2,-10.2)">
      <path
         d="m 23,-23 v 5 h 3 v -5 z"
         id="path48" />
    </g>
    <g
       id="groove-highlight-topleft"
       transform="matrix(0.6,0,0,0.6,5.2,-10.2)">
      <path
         d="m 23,-23 c -2.8037,0 -5,2.1963 -5,5 h 5 z"
         id="path53" />
    </g>
    <path
       id="groove-highlight-center"
       d="m 21,-19 v 1 h 3 v -1 z" />
    <g
       id="groove-highlight-left"
       transform="matrix(0.6,0,0,1,5.2,-1)">
      <path
         d="m 18,-18 v 1 h 5 v -1 z"
         id="path59" />
    </g>
    <use
       id="groove-highlight-topright"
       transform="matrix(-1,0,0,1,45,0)"
       width="100%"
       height="100%"
       xlink:href="#groove-highlight-topleft" />
    <use
       id="groove-highlight-bottomleft"
       transform="matrix(1,0,0,-1,0,-37)"
       width="100%"
       height="100%"
       xlink:href="#groove-highlight-topleft" />
    <use
       id="groove-highlight-bottomright"
       transform="matrix(0,-1,-1,0,5,3)"
       width="100%"
       height="100%"
       xlink:href="#groove-highlight-topleft" />
    <use
       id="groove-highlight-bottom"
       transform="matrix(1,0,0,-1,0,-37)"
       width="100%"
       height="100%"
       xlink:href="#groove-highlight-top" />
    <use
       id="groove-highlight-right"
       transform="matrix(-1,0,0,1,45,0)"
       width="100%"
       height="100%"
       xlink:href="#groove-highlight-left" />
  </g>
  <use
     id="horizontal-slider-handle"
     transform="translate(0,24)"
     width="100%"
     height="100%"
     xlink:href="#vertical-slider-handle" />
  <use
     id="horizontal-slider-hover"
     transform="translate(0,24)"
     width="100%"
     height="100%"
     xlink:href="#vertical-slider-hover" />
  <use
     id="horizontal-slider-focus"
     transform="translate(0,24)"
     width="100%"
     height="100%"
     xlink:href="#vertical-slider-focus" />
</svg>
