<?xml version="1.0" encoding="UTF-8" standalone="no"?>
<svg
   id="svg2"
   width="32"
   height="32"
   version="1.1"
   viewBox="0 0 32 32"
   sodipodi:docname="system.svg"
   inkscape:version="1.2.1 (9c6d41e410, 2022-07-14, custom)"
   xmlns:inkscape="http://www.inkscape.org/namespaces/inkscape"
   xmlns:sodipodi="http://sodipodi.sourceforge.net/DTD/sodipodi-0.dtd"
   xmlns="http://www.w3.org/2000/svg"
   xmlns:svg="http://www.w3.org/2000/svg">
  <sodipodi:namedview
     id="namedview432"
     pagecolor="#ffffff"
     bordercolor="#666666"
     borderopacity="1.0"
     inkscape:showpageshadow="2"
     inkscape:pageopacity="0.0"
     inkscape:pagecheckerboard="0"
     inkscape:deskcolor="#d1d1d1"
     showgrid="false"
     inkscape:zoom="1.5853683"
     inkscape:cx="323.26873"
     inkscape:cy="-22.076889"
     inkscape:window-width="1366"
     inkscape:window-height="742"
     inkscape:window-x="0"
     inkscape:window-y="26"
     inkscape:window-maximized="1"
     inkscape:current-layer="svg2" />
  <defs
     id="defs87">
    <style
       id="current-color-scheme"
       type="text/css">
   .ColorScheme-Text { color:#d3dae3; } .ColorScheme-Highlight { color:#5294e2; } .ColorScheme-ButtonBackground { color:#d3dae3; }
  </style>
    <linearGradient
       id="paint0_linear"
       x1="12"
       y1="21"
       x2="12"
       y2="3"
       gradientUnits="userSpaceOnUse"
       gradientTransform="matrix(0.88888891,0,0,0.88888891,5.4377327,6.1172699)">
      <stop
         stop-color="#00B59C"
         id="stop3515" />
      <stop
         offset="1"
         stop-color="#9CFFAC"
         id="stop3517" />
    </linearGradient>
  </defs>
  <g
     id="22-22-system-suspend"
     transform="translate(88.000001,-988.35999)">
    <rect
       id="rect4222"
       width="22"
       height="22"
       x="0"
       y="1030.36"
       style="opacity:0.00100002;fill:currentColor;fill-opacity:1;stroke:none;stroke-width:2;stroke-linecap:round;stroke-linejoin:round;stroke-miterlimit:4;stroke-dasharray:none;stroke-opacity:1" />
    <g
       id="g4380"
       transform="matrix(1.0009385,0,0,0.99883233,-322.31608,1012.4029)"
       style="display:inline;opacity:1;fill:currentColor;fill-opacity:1">
      <path
         id="path4398"
         class="ColorScheme-Text"
         d="M 8.0449219,2 C 5.4709885,1.9800034 3.1612109,3.6075004 2.3203125,6.0351562 2.0969331,6.6800174 1.9985687,7.3426625 2,8 1.9989991,8.6573375 2.0969831,9.3199826 2.3203125,9.9648438 3.1612109,12.3925 5.4709885,14.02 8.0449219,14 10.618845,13.980003 12.900212,12.315429 13.703125,9.875 13.906195,9.2577756 14.001361,8.6263907 14,8 14.001001,7.3736093 13.906205,6.7422244 13.703125,6.125 12.900212,3.684571 10.618845,2.0199966 8.0449219,2 Z M 8.0292969,3.9980469 C 9.7515617,4.0114312 11.263538,5.1131547 11.800781,6.7460938 11.936599,7.1589011 12.00029,7.582557 12,8 12.00029,8.417443 11.936639,8.8410989 11.800781,9.2539062 11.263538,10.886845 9.7515617,11.988573 8.0292969,12.001953 6.307032,12.015337 4.7736051,10.936893 4.2109375,9.3125 4.0615674,8.8812761 3.9955932,8.4378711 3.9960938,8 3.9955932,7.5621289 4.0615574,7.1187239 4.2109375,6.6875 4.7736051,5.0631071 6.307032,3.9846625 8.0292969,3.9980469 Z M 5.8554688,7 C 5.3807835,7 5,7.446 5,8 5,8.554 5.3807835,9 5.8554688,9 H 10.142578 C 10.61726,9 11,8.554 11,8 11,7.446 10.61726,7 10.142578,7 Z"
         transform="matrix(0.99906238,0,0,1.001169,325.01106,20.983802)"
         style="fill:currentColor" />
    </g>
  </g>
  <g
     id="22-22-system-switch-user"
     transform="translate(110,-988.35999)">
    <rect
       id="rect4220"
       width="22"
       height="22"
       x="0"
       y="1030.36"
       style="opacity:0.00100002;fill:currentColor;fill-opacity:1;stroke:none;stroke-width:2;stroke-linecap:round;stroke-linejoin:round;stroke-miterlimit:4;stroke-dasharray:none;stroke-opacity:1" />
    <path
       id="path4481"
       class="ColorScheme-Text"
       d="m 10.9943,1035.362 c -1.8700303,0 -3.3939153,1.5345 -3.4492153,3.4512 -0.0459,0.012 -0.0915,0.033 -0.13476,0.055 -0.43005,0.227 -0.54034,0.9343 -0.2461,1.5899 0.23672,0.5274 0.65753,0.8538 1.03906,0.8437 0.28723,1.7528 1.430425,3.0606 2.7910153,3.0606 h 0.0117 c 1.36059,0 2.5038,-1.3078 2.79102,-3.0606 0.38154,0.01 0.80234,-0.3163 1.03906,-0.8437 0.29424,-0.6556 0.18394,-1.3629 -0.24609,-1.5899 -0.0433,-0.023 -0.0888,-0.044 -0.13477,-0.055 -0.0553,-1.9167 -1.57919,-3.4512 -3.44922,-3.4512 z m 2.40039,8 c -0.28889,0.7005 -1.27408,1.2246 -2.44922,1.2246 -1.1698503,0 -2.1455953,-0.5173 -2.4394453,-1.2129 -2.46908,0.2581 -4.26818,0.8896 -4.48438,1.6367 -0.003,0.01 0.002,0.016 0,0.024 -0.007,0.026 -0.007,0.049 -0.01,0.076 -10e-4,0.012 -0.0117,0.021 -0.0117,0.035 -9e-5,0 0,0.011 0,0.012 v 1.8477 c 0,0.1976 0.15571,0.3574 0.34961,0.3574 H 17.65034 c 0.1939,0 0.3496,-0.1598 0.3496,-0.3574 v -1.8477 c 0,-0.01 3.5e-4,-0.015 0,-0.023 -0.002,-0.043 -0.0208,-0.081 -0.0332,-0.123 -0.22075,-0.7563 -2.05842,-1.3964 -4.57226,-1.6484 z"
       style="fill:currentColor" />
  </g>
  <g
     id="22-22-system-shutdown"
     transform="translate(66.000001,-988.35999)">
    <rect
       id="rect4229"
       width="22"
       height="22"
       x="0"
       y="1030.36"
       style="opacity:0.00100002;fill:currentColor;fill-opacity:1;stroke:none;stroke-width:2;stroke-linecap:round;stroke-linejoin:round;stroke-miterlimit:4;stroke-dasharray:none;stroke-opacity:1" />
    <path
       id="rect4324"
       class="ColorScheme-Text"
       d="m 11.000336,1034.362 c -0.553987,0 -0.99995,0.4462 -0.99995,1 v 5.0019 c 0,0.5538 0.445963,0.9981 0.99995,0.9981 0.553988,0 0.99995,-0.4443 0.99995,-0.9981 v -5.0019 c 0,-0.5538 -0.445962,-1 -0.99995,-1 z m 2.939305,1.9902 a 1.000176,0.99982748 0 0 0 -0.542942,1.8086 c 1.377976,1.0304 1.941017,2.8148 1.404226,4.4492 -0.536779,1.6344 -2.050513,2.7386 -3.771293,2.752 -1.7207811,0.013 -3.2501263,-1.0675 -3.8123083,-2.6934 -0.562183,-1.6258 -0.02587,-3.419 1.335869,-4.4707 a 1.000176,0.99982748 0 1 0 -1.222594,-1.582 c -2.035135,1.5718 -2.842036,4.2772 -2.001852,6.707 0.840173,2.4298 3.144793,4.0591 5.7165093,4.0391 2.571705,-0.02 4.853744,-1.6863 5.655965,-4.1289 0.80223,-2.4426 -0.04794,-5.1339 -2.107316,-6.6739 a 1.000176,0.99982748 0 0 0 -0.654264,-0.207 z"
       style="fill:currentColor" />
  </g>
  <g
     id="22-22-system-log-out"
     transform="rotate(-90,-461.18115,525.18115)">
    <rect
       id="rect4235"
       width="22"
       height="22"
       x="0"
       y="1030.36"
       style="opacity:0.00100002;fill:currentColor;fill-opacity:1;stroke:none;stroke-width:2;stroke-linecap:round;stroke-linejoin:round;stroke-miterlimit:4;stroke-dasharray:none;stroke-opacity:1" />
    <g
       id="layer12"
       transform="matrix(1.0009385,0,0,0.99883233,-322.31609,1012.4029)"
       style="display:inline;opacity:1;fill:currentColor;fill-opacity:1">
      <path
         id="path6796"
         class="ColorScheme-Text"
         d="M 8.0449219,2 C 5.4709885,1.98 3.161211,3.6075002 2.3203125,6.0351562 2.0969411,6.6800174 1.998566,7.342662 2,8 1.998566,8.657338 2.0969411,9.3199826 2.3203125,9.9648438 3.161211,12.3925 5.4709885,14.02 8.0449219,14 10.618845,13.980003 12.900212,12.315429 13.703125,9.875 13.906197,9.2577753 14.001356,8.626391 14,8 14.001356,7.373609 13.906197,6.7422247 13.703125,6.125 12.900212,3.6845712 10.618845,2.019997 8.0449219,2 Z M 8.0292969,3.9980469 C 9.7515617,4.0114279 11.263537,5.1131547 11.800781,6.7460938 11.9366,7.1589017 12.00029,7.5825571 12,8 12.00029,8.4174429 11.936599,8.8410983 11.800781,9.2539062 11.263537,10.886845 9.7515617,11.988572 8.0292969,12.001953 6.307032,12.015337 4.773605,10.936893 4.2109375,9.3125 4.0615674,8.881276 3.995597,8.4378713 3.9960938,8 3.995597,7.5621287 4.0615674,7.118724 4.2109375,6.6875 4.773605,5.0631072 6.307032,3.9846629 8.0292969,3.9980469 Z M 6.4746094,6 A 0.4736353,0.52746185 0 0 0 6.0625,6.7890625 L 7.5898438,9.734375 A 0.4736353,0.52746185 0 0 0 7.9746094,10 0.4736353,0.52746185 0 0 0 8.0234375,10 0.4736353,0.52746185 0 0 0 8.4101562,9.734375 L 9.9375,6.7890625 A 0.4736353,0.52746185 0 0 0 9.5273438,6 Z"
         transform="matrix(0.99906238,0,0,1.001169,325.01107,20.983802)"
         style="fill:currentColor" />
    </g>
  </g>
  <g
     id="22-22-system-reboot"
     transform="matrix(-1,0,0,1,44.000001,-988.35999)">
    <rect
       id="rect4242"
       width="22"
       height="22"
       x="0"
       y="1030.36"
       style="opacity:0.00100002;fill:currentColor;fill-opacity:1;stroke:none;stroke-width:2;stroke-linecap:round;stroke-linejoin:round;stroke-miterlimit:4;stroke-dasharray:none;stroke-opacity:1" />
    <path
       id="path4360"
       class="ColorScheme-Text"
       d="m 11.475393,1035.3621 a 0.4736353,0.52746183 0 0 0 -0.412109,0.7891 l 1.527343,2.9453 a 0.4736353,0.52746183 0 0 0 0.384766,0.2656 0.4736353,0.52746183 0 0 0 0.04883,0 0.4736353,0.52746183 0 0 0 0.386718,-0.2656 l 0.326172,-0.6289 c 1.12174,1.0534 1.553588,2.6586 1.064453,4.1465 -0.536781,1.6327 -2.050703,2.7366 -3.771484,2.75 -1.7207807,0.013 -3.2503167,-1.0672 -3.8124997,-2.6915 -0.562183,-1.6242 -0.02584,-3.4141 1.335938,-4.4648 a 1.0005526,0.99921387 0 1 0 -1.222657,-1.582 c -2.035134,1.5702 -2.842137,4.2737 -2.001953,6.7011 0.840174,2.4275 3.145082,4.0552 5.7167967,4.0352 2.571705,-0.02 4.854029,-1.6848 5.65625,-4.125 0.789982,-2.4029 -0.02804,-5.0426 -2.019531,-6.5918 l 0.255859,-0.4941 a 0.4736353,0.52746183 0 0 0 -0.410156,-0.7891 h -3.052734 z"
       style="fill:currentColor" />
  </g>
  <g
     id="22-22-system-suspend-hibernate"
     transform="translate(0,-988.35999)">
    <rect
       id="rect4248"
       width="22"
       height="22"
       x="0"
       y="1030.36"
       style="opacity:0.00100002;fill:currentColor;fill-opacity:1;stroke:none;stroke-width:2;stroke-linecap:round;stroke-linejoin:round;stroke-miterlimit:4;stroke-dasharray:none;stroke-opacity:1" />
    <g
       id="g4447"
       transform="matrix(1.0009385,0,0,0.99883233,-322.31607,1012.4029)"
       style="display:inline;opacity:1;fill:currentColor;fill-opacity:1">
      <path
         id="path4455"
         class="ColorScheme-Text"
         d="M 80.044922,2 C 77.470989,1.9800034 75.161212,3.6075014 74.320312,6.0351562 74.096933,6.6800174 73.998569,7.3426625 74,8 73.999,8.6573375 74.09698,9.3199826 74.320312,9.9648438 75.161212,12.3925 77.470989,14.02 80.044922,14 82.618845,13.98 84.900212,12.315429 85.703125,9.875 85.906195,9.2577756 86.001361,8.6263907 86,8 86.001001,7.3736093 85.906205,6.7422244 85.703125,6.125 84.900212,3.684571 82.618845,2.0199966 80.044922,2 Z m -0.01563,1.9980469 c 1.722265,0.013384 3.234241,1.1151078 3.771484,2.7480469 C 83.936599,7.1589011 84.00029,7.582557 84,8 84.00029,8.417443 83.936639,8.8410989 83.800781,9.2539062 83.263538,10.886845 81.751562,11.988574 80.029297,12.001953 78.307032,12.015337 76.773605,10.936893 76.210938,9.3125 76.061566,8.8812761 75.995593,8.4378711 75.996094,8 75.995593,7.5621289 76.061556,7.1187239 76.210938,6.6875 76.773605,5.0631071 78.307032,3.9846625 80.029297,3.9980469 Z M 80,6 a 2,2 0 0 0 -2,2 2,2 0 0 0 2,2 2,2 0 0 0 2,-2 2,2 0 0 0 -2,-2 z"
         transform="matrix(0.99906238,0,0,1.001169,253.07856,20.983802)"
         style="fill:currentColor" />
    </g>
  </g>
  <g
     id="22-22-system-lock-screen"
     transform="translate(132,-988.35999)">
    <rect
       id="rect4255"
       width="22"
       height="22"
       x="0"
       y="1030.36"
       style="opacity:0.00100002;fill:currentColor;fill-opacity:1;stroke:none;stroke-width:2;stroke-linecap:round;stroke-linejoin:round;stroke-miterlimit:4;stroke-dasharray:none;stroke-opacity:1" />
    <path
       id="path5975"
       class="ColorScheme-Text"
       d="m 11,1034.3622 c -2.216,0 -4,1.8216 -4,4.0625 v 1.9375 H 6 c -0.554,0 -1,0.446 -1,1 v 6 c 0,0.554 0.446,1 1,1 h 10 c 0.554,0 1,-0.446 1,-1 v -6 c 0,-0.554 -0.446,-1 -1,-1 h -1 v -1.9375 c 0,-2.24 -1.784,-4.0625 -4,-4.0625 z m 0,2 c 1.108,0 2,0.892 2,2 v 2 H 9 v -2 c 0,-1.108 0.892,-2 2,-2 z"
       style="fill:currentColor" />
  </g>
  <g
     id="22-22-system-users"
     transform="translate(154,-988.35999)">
    <rect
       id="rect1099"
       width="22"
       height="22"
       x="0"
       y="1030.36"
       style="opacity:0.00100002;fill:currentColor;fill-opacity:1;stroke:none;stroke-width:2;stroke-linecap:round;stroke-linejoin:round;stroke-miterlimit:4;stroke-dasharray:none;stroke-opacity:1" />
    <path
       id="path92"
       class="ColorScheme-Text"
       d="m 13.249999,1035.36 c -1.24264,0 -2.25,1.0073 -2.25,2.25 0,1.2427 1.00736,2.25 2.25,2.25 1.242641,0 2.25,-1.0073 2.25,-2.25 0,-1.2427 -1.007359,-2.25 -2.25,-2.25 z m -4.5000003,2.5 c -1.24264,0 -2.2499997,1.0074 -2.2499997,2.25 0,1.2426 1.0073597,2.25 2.2499997,2.25 1.242641,0 2.2500003,-1.0074 2.2500003,-2.25 0,-1.2426 -1.0073593,-2.25 -2.2500003,-2.25 z m 4.5000003,2.5 c -1.206419,0 -1.813589,0.4418 -1.813589,0.4418 -0.380243,1.4191 -1.410388,1.7839 -1.410388,1.7839 1.435718,0.3847 2.303078,1.7743 2.303078,1.7743 0.08516,0.1616 0.16275,0.3286 0.232422,0.5 h 4.438477 v -0.5 c 0,-2.2091 -1.678932,-4 -3.75,-4 z m -4.5000003,2.5 c -2.0710679,0 -3.7499997,1.7909 -3.7499997,4 v 0.5 h 7.5 v -0.5 c 0,-2.2091 -1.678932,-4 -3.7500003,-4 z"
       fill="currentColor"
       sodipodi:nodetypes="sssssssssscsscccscssccss" />
  </g>
  <g
     id="22-22-system-user-list"
     transform="translate(176,-988.35999)">
    <rect
       id="rect1355"
       width="22"
       height="22"
       x="0"
       y="1030.36"
       style="opacity:0.00100002;fill:currentColor;fill-opacity:1;stroke:none;stroke-width:2;stroke-linecap:round;stroke-linejoin:round;stroke-miterlimit:4;stroke-dasharray:none;stroke-opacity:1" />
    <path
       id="path110"
       class="ColorScheme-Text"
       d="m 14.500013,1037.86 c -0.294735,0 -0.566473,0.087 -0.796873,0.2344 0,0.8985 -0.114317,1.1476 -0.54722,1.8975 -5e-4,6e-4 -0.0016,0 -0.0021,0 0.238002,0.5098 0.744381,0.8662 1.345898,0.8662 0.830596,0 1.499028,-0.669 1.499028,-1.5 0,-0.831 -0.668432,-1.5 -1.499028,-1.5 z m -3.499993,4 c -2.4927906,0 -4.5000184,1.8583 -4.5000184,4.1667 v 0.8333 h 9.0000144 v -0.8333 c 0,-2.3084 -2.007218,-4.1667 -4.499996,-4.1667 z m 3.488275,-0.5 c -0.630941,3e-4 -1.198097,0.2394 -1.637699,0.6201 0.643297,0.1724 2.161929,1.086 2.508667,2.3801 h 1.640736 v -0.5 c 0,-1.3847 -1.120102,-2.4995 -2.510742,-2.5 z m -3.488286,-5.5 c -1.3807205,0 -2.5000036,1.1193 -2.5000036,2.5 0,1.3807 1.1192831,2.5 2.5000036,2.5 1.175393,0 2.161336,-0.8111 2.428573,-1.9042 0.04667,-0.1909 0.07143,-0.3905 0.07143,-0.5958 0,-1.3807 -1.119293,-2.5 -2.500004,-2.5 z m -3.4882855,5.5 c 0.6309406,3e-4 1.1980958,0.2394 1.6376977,0.6201 -0.7733312,0.2072 -1.8997304,0.9212 -2.5560557,2.3799 H 4.999999 v -0.5 c 0,-1.3847 1.1201018,-2.4995 2.5107445,-2.5 z m -0.0127,-3.5 c 0.2947353,0 0.5664766,0.087 0.7968759,0.2344 0,0.9006 0.06624,1.1726 0.5470659,1.8975 4.987e-4,6e-4 0.0016,0 0.00207,0 -0.2380007,0.5098 -0.7443806,0.8662 -1.3458972,0.8662 -0.8305966,0 -1.4990275,-0.669 -1.4990275,-1.5 0,-0.831 0.6684309,-1.5 1.4990275,-1.5 z"
       fill="currentColor"
       sodipodi:nodetypes="ccccssccssccssccccsccsssssssscccsssccccsscc" />
  </g>
  <g
     id="22-22-system-search"
     transform="translate(198,-988.35999)">
    <rect
       id="rect1619"
       width="22"
       height="22"
       x="0"
       y="1030.36"
       style="opacity:0.00100002;fill:currentColor;fill-opacity:1;stroke:none;stroke-width:2;stroke-linecap:round;stroke-linejoin:round;stroke-miterlimit:4;stroke-dasharray:none;stroke-opacity:1" />
    <path
       class="ColorScheme-Text"
       d="m 6.3740524,1036.734 a 4.691076,4.6907781 0 0 0 0,6.6339 4.691076,4.6907781 0 0 0 5.8205826,0.6434 c 0.02495,0.031 0.0472,0.064 0.0763,0.094 l 2.94855,2.9484 c 0.408369,0.4084 1.065917,0.4084 1.474249,0 0.408332,-0.4084 0.408368,-1.0658 0,-1.4742 l -2.94855,-2.9483 c -0.02886,-0.029 -0.06169,-0.051 -0.09286,-0.076 a 4.691076,4.6907781 0 0 0 -0.644293,-5.8213 4.691076,4.6907781 0 0 0 -6.634224,0 z m 0.7371244,0.7372 a 3.6486147,3.648383 0 0 1 5.1599232,0 3.6486147,3.648383 0 0 1 0,5.1595 3.6486147,3.648383 0 0 1 -5.1599232,0 3.6486147,3.648383 0 0 1 0,-5.1595 z"
       fill="currentColor"
       id="path1454" />
  </g>
  <g
     id="22-22-system-user-prompt"
     transform="translate(220,-988.35999)">
    <rect
       id="rect2162"
       width="22"
       height="22"
       x="0"
       y="1030.36"
       style="opacity:0.00100002;fill:currentColor;fill-opacity:1;stroke:none;stroke-width:2;stroke-linecap:round;stroke-linejoin:round;stroke-miterlimit:4;stroke-dasharray:none;stroke-opacity:1" />
    <path
       id="rect2032"
       class="ColorScheme-Text"
       d="M 6.4999999,1042.11 C 5.6690034,1042.11 5,1042.779 5,1043.61 c 0,0.831 0.6690034,1.5 1.4999999,1.5 H 15.5 c 0.830997,0 1.5,-0.669 1.5,-1.5 0,-0.831 -0.669003,-1.5 -1.5,-1.5 z m 0,0.75 a 0.74999972,0.74999972 0 0 1 0.75,0.75 0.74999972,0.74999972 0 0 1 -0.75,0.75 0.74999972,0.74999972 0 0 1 -0.75,-0.75 0.74999972,0.74999972 0 0 1 0.75,-0.75 z m 2.25,0 A 0.74999972,0.74999972 0 0 1 9.5,1043.61 a 0.74999972,0.74999972 0 0 1 -0.7500001,0.75 0.74999972,0.74999972 0 0 1 -0.75,-0.75 0.74999972,0.74999972 0 0 1 0.75,-0.75 z M 11,1042.86 a 0.74999972,0.74999972 0 0 1 0.75,0.75 0.74999972,0.74999972 0 0 1 -0.75,0.75 0.74999972,0.74999972 0 0 1 -0.75,-0.75 0.74999972,0.74999972 0 0 1 0.75,-0.75 z m 2.25,0 a 0.74999972,0.74999972 0 0 1 0.75,0.75 0.74999972,0.74999972 0 0 1 -0.75,0.75 0.74999972,0.74999972 0 0 1 -0.75,-0.75 0.74999972,0.74999972 0 0 1 0.75,-0.75 z"
       fill="currentColor" />
    <path
       id="rect2121"
       class="ColorScheme-Text"
       d="M 6.4999999,1037.61 C 5.6690026,1037.61 5,1038.279 5,1039.11 c 0,0.831 0.6690026,1.5 1.4999999,1.5 H 15.5 c 0.830998,0 1.5,-0.669 1.5,-1.5 0,-0.831 -0.669002,-1.5 -1.5,-1.5 z m 0,0.75 h 0.75 c 0.4154978,0 0.75,0.3345 0.75,0.75 0,0.4155 -0.3345022,0.75 -0.75,0.75 h -0.75 c -0.4154985,0 -0.75,-0.3345 -0.75,-0.75 0,-0.4155 0.3345015,-0.75 0.75,-0.75 z m 2.625,0 H 10.625 c 0.415498,0 0.75,0.3345 0.75,0.75 0,0.4155 -0.334502,0.75 -0.75,0.75 H 9.1249999 c -0.4154985,0 -0.75,-0.3345 -0.75,-0.75 0,-0.4155 0.3345015,-0.75 0.75,-0.75 z m 3.3750001,0 h 0.75 c 0.415499,0 0.75,0.3345 0.75,0.75 0,0.4155 -0.334501,0.75 -0.75,0.75 H 12.5 c -0.415499,0 -0.75,-0.3345 -0.75,-0.75 0,-0.4155 0.334501,-0.75 0.75,-0.75 z"
       fill="currentColor" />
  </g>
  <g
     id="22-22-system-save-session"
     transform="translate(242,-988.35999)">
    <rect
       id="rect3773"
       width="22"
       height="22"
       x="0"
       y="1030.36"
       style="opacity:0.00100002;fill:currentColor;fill-opacity:1;stroke:none;stroke-width:2;stroke-linecap:round;stroke-linejoin:round;stroke-miterlimit:4;stroke-dasharray:none;stroke-opacity:1" />
    <path
       id="path3513"
       d="m 6.3330078,1035.36 c -0.3536197,0 -0.6918484,0.1411 -0.9418945,0.3911 C 5.1410604,1036.0012 5,1036.3394 5,1036.693 v 9.334 c 0,0.3536 0.1410604,0.6918 0.3911133,0.9419 0.2500461,0.25 0.5882748,0.3911 0.9418945,0.3911 H 15.666992 C 16.400323,1047.36 17,1046.7603 17,1046.027 v -8.001 l -2.666016,-2.666 z M 6.875,1037.235 h 6 v 3 h -6 z M 11,1042.11 a 1.8749996,1.8749996 0 0 1 1.875,1.875 A 1.8749996,1.8749996 0 0 1 11,1045.86 1.8749996,1.8749996 0 0 1 9.125,1043.985 1.8749996,1.8749996 0 0 1 11,1042.11 Z"
       fill="currentColor"
       class="ColorScheme-Text" />
  </g>
  <g
     id="system-log-out"
     transform="translate(0,-1020.3622)">
    <rect
       id="rect17072"
       width="32"
       height="32"
       x="96"
       y="1020.36"
       style="opacity:0.001;fill:currentColor;fill-opacity:1;stroke:none;stroke-width:2;stroke-linecap:round;stroke-linejoin:round;stroke-miterlimit:4;stroke-dasharray:none;stroke-opacity:1" />
    <g
       id="g5182"
       transform="translate(96,1020.3622)">
      <path
         id="path5180"
         class="ColorScheme-Text"
         d="M 112 2 A 14 14 0 0 0 98 16 A 14 14 0 0 0 112 30 A 14 14 0 0 0 126 16 A 14 14 0 0 0 112 2 z M 112 7 A 9 9 0 0 1 121 16 A 9 9 0 0 1 112 25 A 9 9 0 0 1 103 16 A 9 9 0 0 1 112 7 z M 112 9 A 7 7 0 0 0 105 16 A 7 7 0 0 0 112 23 A 7 7 0 0 0 119 16 A 7 7 0 0 0 112 9 z M 112 13 L 113.98242 14.539062 L 116 16 L 113.98438 17.460938 L 112 19 L 112.02344 17 L 109 17 C 108.446 17 108 16.554 108 16 C 108 15.446 108.446 15 109 15 L 112.02344 15 L 112 13 z"
         transform="translate(-96)"
         style="fill:currentColor" />
    </g>
  </g>
  <g
     id="system-shutdown"
     transform="translate(0,-1020.3622)">
    <rect
       id="rect10931"
       width="32"
       height="32"
       x="32"
       y="1020.36"
       style="opacity:0.001;fill:currentColor;fill-opacity:1;stroke:none;stroke-width:2;stroke-linecap:round;stroke-linejoin:round;stroke-miterlimit:4;stroke-dasharray:none;stroke-opacity:1" />
    <g
       id="g4975"
       transform="translate(32,1020.3622)">
      <path
         id="path4975"
         class="ColorScheme-Text"
         d="M 48 2 A 14 14 0 0 0 34 16 A 14 14 0 0 0 48 30 A 14 14 0 0 0 62 16 A 14 14 0 0 0 48 2 z M 48 7 A 9 9 0 0 1 57 16 A 9 9 0 0 1 48 25 A 9 9 0 0 1 39 16 A 9 9 0 0 1 48 7 z M 48 9 A 7 7 0 0 0 41 16 A 7 7 0 0 0 48 23 A 7 7 0 0 0 55 16 A 7 7 0 0 0 48 9 z M 48 12 C 48.554 12 49 12.446 49 13 L 49 19 C 49 19.554 48.554 20 48 20 C 47.446 20 47 19.554 47 19 L 47 13 C 47 12.446 47.446 12 48 12 z"
         transform="translate(-32)"
         style="fill:currentColor" />
    </g>
  </g>
  <g
     id="system-suspend-hibernate"
     transform="translate(64,-1020.3622)">
    <rect
       id="rect10958"
       width="32"
       height="32"
       x="0"
       y="1020.36"
       style="opacity:0.001;fill:currentColor;fill-opacity:1;stroke:none;stroke-width:2;stroke-linecap:round;stroke-linejoin:round;stroke-miterlimit:4;stroke-dasharray:none;stroke-opacity:1" />
    <g
       id="g5391"
       transform="translate(0,1020.3622)">
      <path
         id="path5391"
         class="ColorScheme-Text"
         d="M 80 2 A 14 14 0 0 0 66 16 A 14 14 0 0 0 80 30 A 14 14 0 0 0 94 16 A 14 14 0 0 0 80 2 z M 80 7 C 84.9706 7 89 11.0294 89 16 C 89 20.9706 84.9706 25 80 25 C 75.0294 25 71 20.9706 71 16 C 71 11.0294 75.0294 7 80 7 z M 80 9 C 76.134 9 73 12.134 73 16 C 73 19.866 76.134 23 80 23 C 83.866 23 87 19.866 87 16 C 87 12.134 83.866 9 80 9 z M 80 14 A 2 2 0 0 1 82 16 A 2 2 0 0 1 80 18 A 2 2 0 0 1 78 16 A 2 2 0 0 1 80 14 z"
         transform="translate(-64)"
         style="fill:currentColor" />
    </g>
  </g>
  <g
     id="system-switch-user"
     transform="translate(160,-1020.3622)">
    <rect
       id="rect11647"
       width="32"
       height="32"
       x="0"
       y="1020.36"
       style="opacity:0.001;fill:currentColor;fill-opacity:1;stroke:none;stroke-width:2;stroke-linecap:round;stroke-linejoin:round;stroke-miterlimit:4;stroke-dasharray:none;stroke-opacity:1" />
    <g
       id="g4766"
       transform="translate(0,1020.3622)">
      <path
         id="path4766"
         class="ColorScheme-Text"
         d="M 176 2 A 14 14 0 0 0 162 16 A 14 14 0 0 0 176 30 A 14 14 0 0 0 190 16 A 14 14 0 0 0 176 2 z M 173 8 C 173.665 8 174 8.4128812 174 8.9257812 L 174 20 L 177 20 L 173 24 L 169 20 L 172 20 L 172 8.9257812 C 172 8.4128812 172.335 8 173 8 z M 179 8 L 183 12 L 180 12 L 180 23.074219 C 180 23.587089 179.6648 24 179 24 C 178.335 24 178 23.587219 178 23.074219 L 178 12 L 175 12 L 179 8 z"
         transform="translate(-160)"
         style="fill:currentColor" />
    </g>
  </g>
  <g
     id="system-suspend">
    <rect
       id="rect10929"
       class="ColorScheme-Text"
       width="32"
       height="32"
       x="-32"
       y="0"
       style="opacity:0.001;fill:currentColor;fill-opacity:1;stroke:none;stroke-width:2;stroke-linecap:round;stroke-linejoin:round;stroke-miterlimit:4;stroke-dasharray:none;stroke-opacity:1" />
    <g
       id="system-suspend2"
       transform="translate(-32)">
      <path
         id="path5182"
         class="ColorScheme-Text"
         d="M -16 2 A 14 14 0 0 0 -30 16 A 14 14 0 0 0 -16 30 A 14 14 0 0 0 -2 16 A 14 14 0 0 0 -16 2 z M -16 7 A 9 9 0 0 1 -7 16 A 9 9 0 0 1 -16 25 A 9 9 0 0 1 -25 16 A 9 9 0 0 1 -16 7 z M -16 9 A 7 7 0 0 0 -23 16 A 7 7 0 0 0 -16 23 A 7 7 0 0 0 -9 16 A 7 7 0 0 0 -16 9 z M -19 15 L -13 15 C -12.446 15 -12 15.446 -12 16 C -12 16.554 -12.446 17 -13 17 L -19 17 C -19.554 17 -20 16.554 -20 16 C -20 15.446 -19.554 15 -19 15 z"
         transform="translate(32)"
         style="fill:currentColor" />
    </g>
  </g>
  <g
     id="system-reboot"
     transform="translate(0,-1020.3622)">
    <rect
       id="rect11699"
       width="32"
       height="32"
       x="0"
       y="1020.36"
       style="opacity:0.001;fill:currentColor;fill-opacity:1;stroke:none;stroke-width:2;stroke-linecap:round;stroke-linejoin:round;stroke-miterlimit:4;stroke-dasharray:none;stroke-opacity:1" />
    <g
       id="g4768"
       transform="translate(0,1020.3622)">
      <path
         id="path4770"
         class="ColorScheme-Text"
         d="M 16 2 A 14 14 0 0 0 2 16 A 14 14 0 0 0 16 30 A 14 14 0 0 0 30 16 A 14 14 0 0 0 16 2 z M 14 4 L 18 8 L 14 12 L 14 9.2988281 C 11.036 10.182828 9.0031 12.907 9 16 C 9 19.866 12.134 23 16 23 C 19.477 22.996 22.422922 20.441 22.919922 17 C 22.919922 17 23 16 24 16 C 25 16 24.933594 17 24.933594 17 C 24.424794 21.5512 20.5795 24.9946 16 25 C 11.0294 25 7 20.9706 7 16 C 7.0044 11.803 9.9084 8.166875 14 7.234375 L 14 4 z"
         style="fill:currentColor" />
    </g>
  </g>
  <g
     id="system-lock-screen"
     transform="translate(0,-1020.3622)">
    <rect
       id="rect10985"
       width="32"
       height="32"
       x="128"
       y="1020.36"
       style="opacity:0.001;fill:currentColor;fill-opacity:1;stroke:none;stroke-width:2;stroke-linecap:round;stroke-linejoin:round;stroke-miterlimit:4;stroke-dasharray:none;stroke-opacity:1" />
    <g
       id="g4934"
       transform="translate(128,1.7382813e-5)">
      <path
         id="path4350"
         class="ColorScheme-Text"
         d="M 144 2 A 14 14 0 0 0 130 16 A 14 14 0 0 0 144 30 A 14 14 0 0 0 158 16 A 14 14 0 0 0 144 2 z M 144 6 C 146.82 6 149 8.2932781 149 11.142578 L 149 13 L 150.10938 13 C 150.60138 12.968 151 13.472703 151 13.970703 L 151 23.099609 C 151 23.597609 150.60237 24 150.10938 24 L 137.89062 24 C 137.39742 24 137 23.597609 137 23.099609 L 137 13.970703 C 137 13.472703 137.39742 13 137.89062 13 L 139 13 L 139 11.142578 C 139 8.2933781 141.1796 6 144 6 z M 144 8 C 142.237 8 141 9.3615781 141 11.142578 L 141 13 L 147 13 L 147 11.142578 C 147 9.3617781 145.7627 8 144 8 z"
         transform="translate(-128,1020.3622)"
         style="fill:currentColor" />
    </g>
  </g>
  <g
     id="system-users"
     transform="translate(192,-1020.3622)">
    <rect
       id="rect551"
       width="32"
       height="32"
       x="0"
       y="1020.36"
       style="opacity:0.00100002;fill:currentColor;fill-opacity:1;stroke:none;stroke-width:2;stroke-linecap:round;stroke-linejoin:round;stroke-miterlimit:4;stroke-dasharray:none;stroke-opacity:1" />
    <g
       id="g555"
       transform="translate(0,1020.3622)">
      <path
         id="path553"
         style="fill:currentColor"
         class="ColorScheme-Text"
         d="M 176 2 C 168.26802 2 162 8.2680212 162 16 C 162 23.731978 168.26802 30 176 30 C 183.73198 30 190 23.731978 190 16 C 190 8.2680212 183.73198 2 176 2 z M 179 8 C 180.65685 8 182 9.3431475 182 11 C 182 12.656852 180.65685 14 179 14 C 177.34315 14 176 12.656852 176 11 C 176 9.3431475 177.34315 8 179 8 z M 173 11.333984 C 174.65685 11.333984 176 12.677131 176 14.333984 C 176 15.990836 174.65685 17.333984 173 17.333984 C 171.34315 17.333984 170 15.990836 170 14.333984 C 170 12.677131 171.34315 11.333984 173 11.333984 z M 179 14.666016 C 181.76142 14.666016 184 17.054485 184 20 L 184 20.666016 L 178.08203 20.666016 C 177.98913 20.437425 177.88503 20.215526 177.77148 20 C 177.77148 20 176.61546 18.147697 174.70117 17.634766 C 174.70117 17.634766 176.07504 17.147968 176.58203 15.255859 C 176.58203 15.255859 177.39144 14.666016 179 14.666016 z M 173 18 C 175.76142 18 178 20.388468 178 23.333984 L 178 24 L 168 24 L 168 23.333984 C 168 20.388468 170.23858 18 173 18 z "
         transform="translate(-160)" />
    </g>
  </g>
  <g
     id="system-user-list"
     transform="translate(224,-1020.3622)">
    <rect
       id="rect1200"
       width="32"
       height="32"
       x="0"
       y="1020.36"
       style="opacity:0.00100002;fill:currentColor;fill-opacity:1;stroke:none;stroke-width:2;stroke-linecap:round;stroke-linejoin:round;stroke-miterlimit:4;stroke-dasharray:none;stroke-opacity:1" />
    <g
       id="g1204"
       transform="translate(0,1020.3622)">
      <path
         id="path1202"
         style="fill:currentColor"
         class="ColorScheme-Text"
         d="M 176 2 C 168.26802 2 162 8.2680212 162 16 C 162 23.731978 168.26802 30 176 30 C 183.73198 30 190 23.731978 190 16 C 190 8.2680212 183.73198 2 176 2 z M 176 7.75 C 178.07106 7.75 179.75 9.4289257 179.75 11.5 C 179.75 11.807979 179.71259 12.108129 179.64258 12.394531 C 179.24172 14.034121 177.76309 15.25 176 15.25 C 173.92892 15.25 172.25 13.571074 172.25 11.5 C 172.25 9.4289257 173.92892 7.75 176 7.75 z M 170.74805 10.75 C 171.19015 10.75 171.59776 10.88093 171.94336 11.101562 C 171.94336 12.452448 172.04243 12.860013 172.76367 13.947266 C 172.76442 13.948205 172.76688 13.950272 172.76758 13.951172 C 172.41058 14.715963 171.65032 15.25 170.74805 15.25 C 169.50215 15.25 168.5 14.246501 168.5 13 C 168.5 11.753499 169.50215 10.750001 170.74805 10.75 z M 181.25 10.75 C 182.49589 10.75 183.49805 11.753499 183.49805 13 C 183.49805 14.246501 182.49589 15.25 181.25 15.25 C 180.34772 15.25 179.58747 14.715964 179.23047 13.951172 C 179.23117 13.950272 179.23363 13.948205 179.23438 13.947266 C 179.88373 12.822551 180.05469 12.449378 180.05469 11.101562 C 180.40029 10.88093 180.8079 10.75 181.25 10.75 z M 170.76562 16 L 170.76758 16 C 171.71399 16.000367 172.56521 16.358642 173.22461 16.929688 C 172.06461 17.240508 170.37511 18.31188 169.39062 20.5 L 167 20.5 L 167 19.75 C 167 17.672973 168.67966 16.00079 170.76562 16 z M 181.23242 16 L 181.23438 16 C 183.32033 16.000789 185 17.672975 185 19.75 L 185 20.5 L 182.53906 20.5 C 182.01896 18.558938 179.74033 17.188243 178.77539 16.929688 C 179.43479 16.358642 180.28601 16.000367 181.23242 16 z M 176 16.75 C 179.73916 16.75 182.75 19.537473 182.75 23 L 182.75 24.25 L 169.25 24.25 L 169.25 23 C 169.25 19.537473 172.26082 16.75 176 16.75 z "
         transform="translate(-160)" />
    </g>
  </g>
  <g
     id="system-search"
     transform="translate(256,-1020.3622)">
    <rect
       id="rect1597"
       width="32"
       height="32"
       x="0"
       y="1020.36"
       style="opacity:0.00100002;fill:currentColor;fill-opacity:1;stroke:none;stroke-width:2;stroke-linecap:round;stroke-linejoin:round;stroke-miterlimit:4;stroke-dasharray:none;stroke-opacity:1" />
    <g
       id="g1601"
       transform="translate(0,1020.3622)">
      <path
         id="path1599"
         style="fill:currentColor"
         class="ColorScheme-Text"
         d="M 176 2 C 168.26802 2 162 8.2680212 162 16 C 162 23.731978 168.26802 30 176 30 C 183.73198 30 190 23.731978 190 16 C 190 8.2680212 183.73198 2 176 2 z M 173.55469 8.0390625 A 6.2547932 6.2547932 0 0 1 178.67773 9.8320312 A 6.2547932 6.2547932 0 0 1 179.53711 17.59375 C 179.57867 17.626779 179.62169 17.656843 179.66016 17.695312 L 183.5918 21.626953 C 184.13629 22.171398 184.13624 23.047304 183.5918 23.591797 C 183.04735 24.13629 182.16949 24.13629 181.625 23.591797 L 177.69531 19.660156 C 177.65651 19.62135 177.62702 19.577086 177.59375 19.535156 A 6.2547932 6.2547932 0 0 1 169.83203 18.677734 A 6.2547932 6.2547932 0 0 1 169.83203 9.8320312 A 6.2547932 6.2547932 0 0 1 173.55469 8.0390625 z M 173.71094 9.4199219 A 4.8648391 4.8648391 0 0 0 170.81445 10.814453 A 4.8648391 4.8648391 0 0 0 170.81445 17.695312 A 4.8648391 4.8648391 0 0 0 177.69531 17.695312 A 4.8648391 4.8648391 0 0 0 177.69531 10.814453 A 4.8648391 4.8648391 0 0 0 173.71094 9.4199219 z "
         transform="translate(-160)" />
    </g>
  </g>
  <g
     id="system-user-prompt"
     transform="translate(288,-1020.3622)">
    <rect
       id="rect1951"
       width="32"
       height="32"
       x="0"
       y="1020.3622"
       style="opacity:0.00100002;fill:currentColor;fill-opacity:1;stroke:none;stroke-width:2;stroke-linecap:round;stroke-linejoin:round;stroke-miterlimit:4;stroke-dasharray:none;stroke-opacity:1" />
    <g
       id="g1955"
       transform="translate(0,1020.3622)">
      <path
         id="path1953"
         style="fill:currentColor"
         class="ColorScheme-Text"
         d="M 176 2 C 168.26804 2 162 8.2680366 162 16 C 162 23.731962 168.26804 30 176 30 C 183.73196 30 190 23.731962 190 16 C 190 8.2680366 183.73196 2 176 2 z M 170 11 L 182 11 C 183.108 11 184 11.892005 184 13 C 184 14.107995 183.108 15 182 15 L 170 15 C 168.892 15 168 14.107995 168 13 C 168 11.892005 168.892 11 170 11 z M 170 12 C 169.446 12 169 12.446005 169 13 C 169 13.553995 169.446 14 170 14 L 171 14 C 171.554 14 172 13.553995 172 13 C 172 12.446005 171.554 12 171 12 L 170 12 z M 173.5 12 C 172.946 12 172.5 12.446004 172.5 13 C 172.5 13.553996 172.946 14 173.5 14 L 175.5 14 C 176.054 14 176.5 13.553996 176.5 13 C 176.5 12.446004 176.054 12 175.5 12 L 173.5 12 z M 178 12 C 177.446 12 177 12.446003 177 13 C 177 13.553997 177.446 14 178 14 L 179 14 C 179.554 14 180 13.553997 180 13 C 180 12.446003 179.554 12 179 12 L 178 12 z M 170 17 L 182 17 C 183.10799 17 184 17.892005 184 19 C 184 20.107995 183.10799 21 182 21 L 170 21 C 168.89201 21 168 20.107995 168 19 C 168 17.892005 168.89201 17 170 17 z M 170 18 A 0.99999964 0.99999964 0 0 0 169 19 A 0.99999964 0.99999964 0 0 0 170 20 A 0.99999964 0.99999964 0 0 0 171 19 A 0.99999964 0.99999964 0 0 0 170 18 z M 173 18 A 0.99999964 0.99999964 0 0 0 172 19 A 0.99999964 0.99999964 0 0 0 173 20 A 0.99999964 0.99999964 0 0 0 174 19 A 0.99999964 0.99999964 0 0 0 173 18 z M 176 18 A 0.99999964 0.99999964 0 0 0 175 19 A 0.99999964 0.99999964 0 0 0 176 20 A 0.99999964 0.99999964 0 0 0 177 19 A 0.99999964 0.99999964 0 0 0 176 18 z M 179 18 A 0.99999964 0.99999964 0 0 0 178 19 A 0.99999964 0.99999964 0 0 0 179 20 A 0.99999964 0.99999964 0 0 0 180 19 A 0.99999964 0.99999964 0 0 0 179 18 z "
         transform="translate(-160)" />
    </g>
  </g>
  <g
     id="system-save-session"
     transform="translate(320,-1020.3622)">
    <rect
       id="rect3694"
       width="32"
       height="32"
       x="0"
       y="1020.3622"
       style="opacity:0.00100002;fill:currentColor;fill-opacity:1;stroke:none;stroke-width:2;stroke-linecap:round;stroke-linejoin:round;stroke-miterlimit:4;stroke-dasharray:none;stroke-opacity:1" />
    <g
       id="g3698"
       transform="translate(0,1020.3622)">
      <path
         id="path3696"
         style="fill:currentColor"
         class="ColorScheme-Text"
         d="M 176 2 C 168.26805 2 162 8.2680443 162 16 C 162 23.731954 168.26805 30 176 30 C 183.73195 30 190 23.731954 190 16 C 190 8.2680443 183.73195 2 176 2 z M 169.77734 8 L 180.44531 8 L 184 11.554688 L 184 22.222656 C 184 23.200431 183.20043 24 182.22266 24 L 169.77734 24 C 169.30585 24 168.85488 23.811935 168.52148 23.478516 C 168.18808 23.145094 168 22.694123 168 22.222656 L 168 9.7773438 C 168 9.305851 168.18808 8.8548788 168.52148 8.5214844 C 168.85488 8.1880809 169.30585 8 169.77734 8 z M 170.5 10.5 L 170.5 14.5 L 178.5 14.5 L 178.5 10.5 L 170.5 10.5 z M 176 17 A 2.4999995 2.4999995 0 0 0 173.5 19.5 A 2.4999995 2.4999995 0 0 0 176 22 A 2.4999995 2.4999995 0 0 0 178.5 19.5 A 2.4999995 2.4999995 0 0 0 176 17 z "
         transform="translate(-160)" />
    </g>
  </g>
</svg>
