<?xml version="1.0" encoding="UTF-8" standalone="no"?>
<svg
   width="744.09"
   height="1052.4"
   version="1.1"
   id="svg84"
   sodipodi:docname="tabbar.svgz"
   inkscape:version="1.2 (dc2aedaf03, 2022-05-15)"
   xmlns:inkscape="http://www.inkscape.org/namespaces/inkscape"
   xmlns:sodipodi="http://sodipodi.sourceforge.net/DTD/sodipodi-0.dtd"
   xmlns="http://www.w3.org/2000/svg"
   xmlns:svg="http://www.w3.org/2000/svg"
   xmlns:rdf="http://www.w3.org/1999/02/22-rdf-syntax-ns#"
   xmlns:cc="http://creativecommons.org/ns#"
   xmlns:dc="http://purl.org/dc/elements/1.1/">
  <sodipodi:namedview
     id="namedview72"
     pagecolor="#ffffff"
     bordercolor="#666666"
     borderopacity="1.0"
     inkscape:pageshadow="2"
     inkscape:pageopacity="0.0"
     inkscape:pagecheckerboard="0"
     showgrid="false"
     inkscape:zoom="5.6332032"
     inkscape:cx="300.62825"
     inkscape:cy="240.9819"
     inkscape:window-width="1920"
     inkscape:window-height="1000"
     inkscape:window-x="0"
     inkscape:window-y="0"
     inkscape:window-maximized="1"
     inkscape:current-layer="svg84"
     inkscape:showpageshadow="2"
     inkscape:deskcolor="#d1d1d1">
    <inkscape:grid
       type="xygrid"
       id="grid853" />
  </sodipodi:namedview>
  <metadata
     id="metadata88">
    <rdf:RDF>
      <cc:Work
         rdf:about="">
        <dc:format>image/svg+xml</dc:format>
        <dc:type
           rdf:resource="http://purl.org/dc/dcmitype/StillImage" />
      </cc:Work>
    </rdf:RDF>
  </metadata>
  <defs
     id="defs3">
    <style
       id="current-color-scheme"
       type="text/css">.ColorScheme-Text {
        color:#31363b;
      }
      .ColorScheme-Background{
        color:#f5f5f5;
      }
      .ColorScheme-ViewText {
        color:#31363b;
      }
      .ColorScheme-ViewBackground{
        color:#fcfcfc;
      }
      .ColorScheme-ViewHover {
        color:#3daee9;
      }
      .ColorScheme-ViewFocus{
        color:#3daee9;
      }
      .ColorScheme-ButtonText {
        color:#31363b;
      }
      .ColorScheme-ButtonBackground{
        color:#f5f5f5;
      }
      .ColorScheme-ButtonHover {
        color:#3daee9;
      }
      .ColorScheme-ButtonFocus{
        color:#3daee9;
      }</style>
  </defs>
  <g
     id="south-active-tab-top"
     transform="matrix(0.25,0,0,1.3333161,27.25,-1189.7977)"
     class="ColorScheme-Text"
     fill="currentColor"
     opacity="0.15">
    <rect
       transform="matrix(0,-1,-1,0,0,0)"
       x="-916.35999"
       y="-51"
       width="6"
       height="32"
       id="rect6" />
  </g>
  <g
     id="south-active-tab-topleft"
     transform="matrix(0.66666666,0,0,0.66666606,15.333334,-582.90614)"
     class="ColorScheme-Text"
     fill="currentColor"
     opacity="0.15">
    <path
       d="m 25,910.36 c -6.648,0 -12,5.352 -12,12 h 12 v -10 z"
       id="rect9" />
  </g>
  <g
     id="south-active-tab-topright"
     transform="matrix(0.66666666,0,0,0.66666606,10,-582.90614)"
     class="ColorScheme-Text"
     fill="currentColor"
     opacity="0.15">
    <path
       d="m 45,910.36 v 12 h 12 c 0,-6.648 -5.352,-12 -12,-12 z"
       id="rect12" />
  </g>
  <g
     id="south-active-tab-left"
     transform="matrix(1.3333174,0,0,0.24999582,6.6668746,-197.08619)"
     class="ColorScheme-Text"
     fill="currentColor"
     opacity="0.15">
    <rect
       transform="scale(-1,1)"
       x="-19"
       y="916.35999"
       width="6"
       height="32"
       id="south-left-rect" />
  </g>
  <rect
     id="south-active-tab-center"
     x="32"
     y="32.000111"
     width="8"
     height="7.999866"
     class="ColorScheme-Text"
     fill="currentColor"
     opacity="0.15" />
  <g
     id="south-active-tab-right"
     transform="matrix(1.3333174,0,0,0.24999582,-27.999185,-197.08619)"
     class="ColorScheme-Text"
     fill="currentColor"
     opacity="0.15">
    <rect
       x="51"
       y="916.35999"
       width="6"
       height="32"
       id="south-right-rect" />
  </g>
  <g
     id="south-active-tab-bottomright"
     transform="matrix(0.66666666,0,0,0.66666606,10,-588.23944)"
     class="ColorScheme-Text"
     fill="currentColor"
     opacity="0.15">
    <path
       d="m 45,942.36 v 12 c 6.648,0 12,-5.352 12,-12 H 47 Z"
       id="south-bottomright-path" />
  </g>
  <g
     id="south-active-tab-bottom"
     transform="matrix(0.25,0,0,1.3333161,27.25,-1224.4637)"
     class="ColorScheme-Text"
     fill="currentColor"
     opacity="0.15">
    <rect
       transform="rotate(90)"
       x="948.35999"
       y="-51"
       width="6"
       height="32"
       id="south-bottom-rect" />
  </g>
  <g
     id="south-active-tab-bottomleft"
     transform="matrix(0.66666666,0,0,0.66666606,15.333334,-588.23944)"
     class="ColorScheme-Text"
     fill="currentColor"
     opacity="0.15">
    <path
       d="m 13,942.36 c 0,6.648 5.352,12 12,12 v -12 H 15 Z"
       id="south-bottomleft-path" />
  </g>
  <rect
     id="east-active-tab-bottom"
     transform="rotate(-90)"
     x="-365.7"
     y="408"
     width="10"
     height="12"
     class="ColorScheme-Text"
     fill="currentColor"
     opacity=".15" />
  <rect
     id="east-active-tab-center"
     transform="rotate(-90)"
     x="-355.7"
     y="408"
     width="80"
     height="12"
     class="ColorScheme-Text"
     fill="currentColor"
     opacity=".15" />
  <rect
     id="east-active-tab-top"
     transform="rotate(-90)"
     x="-275.7"
     y="408"
     width="10"
     height="12"
     class="ColorScheme-Text"
     fill="currentColor"
     opacity=".15" />
  <rect
     id="east-active-tab-topright"
     transform="rotate(-90)"
     x="-275.7"
     y="420"
     width="10"
     height="4"
     class="ColorScheme-Text"
     fill="currentColor"
     opacity=".15" />
  <rect
     id="east-active-tab-right"
     transform="rotate(-90)"
     x="-355.7"
     y="420"
     width="80"
     height="4"
     class="ColorScheme-Text"
     fill="currentColor"
     opacity=".15" />
  <rect
     id="east-active-tab-bottomright"
     transform="rotate(-90)"
     x="-365.7"
     y="420"
     width="10"
     height="4"
     class="ColorScheme-Text"
     fill="currentColor"
     opacity=".15" />
  <g
     id="east-active-tab-left"
     transform="rotate(90 265.18 501.18)">
    <rect
       class="ColorScheme-Text"
       fill="currentColor"
       x="40"
       y="359.36"
       width="80"
       height="3"
       id="rect33"
       style="opacity:0.15" />
  </g>
  <rect
     id="west-active-tab-top"
     transform="rotate(90)"
     x="266"
     y="-216"
     width="10"
     height="12"
     class="ColorScheme-Text"
     fill="currentColor"
     opacity=".15" />
  <rect
     id="west-active-tab-center"
     transform="rotate(90)"
     x="276"
     y="-216"
     width="80"
     height="12"
     class="ColorScheme-Text"
     fill="currentColor"
     opacity=".15" />
  <rect
     id="west-active-tab-bottom"
     transform="rotate(90)"
     x="356"
     y="-216"
     width="10"
     height="12"
     class="ColorScheme-Text"
     fill="currentColor"
     opacity=".15" />
  <rect
     id="west-active-tab-bottomleft"
     transform="rotate(90)"
     x="356"
     y="-204"
     width="10"
     height="4"
     class="ColorScheme-Text"
     fill="currentColor"
     opacity=".15" />
  <rect
     id="west-active-tab-left"
     transform="rotate(90)"
     x="276"
     y="-204"
     width="80"
     height="4"
     class="ColorScheme-Text"
     fill="currentColor"
     opacity=".15" />
  <rect
     id="west-active-tab-topleft"
     transform="rotate(90)"
     x="266"
     y="-204"
     width="10"
     height="4"
     class="ColorScheme-Text"
     fill="currentColor"
     opacity=".15" />
  <g
     id="west-active-tab-right"
     transform="rotate(90 171.68 407.68)">
    <rect
       class="ColorScheme-Text"
       x="40"
       y="359.36"
       width="80"
       height="3"
       fill="currentColor"
       opacity=".15"
       id="rect46" />
  </g>
  <g
     id="west-active-tab-topright"
     transform="rotate(90 171.68 407.68)">
    <rect
       x="30"
       y="359.36"
       width="10"
       height="3"
       class="ColorScheme-Text"
       fill="currentColor"
       opacity=".15"
       id="rect49" />
  </g>
  <g
     id="west-active-tab-bottomright"
     transform="rotate(90 171.68 407.68)">
    <rect
       x="120"
       y="359.36"
       width="10"
       height="3"
       class="ColorScheme-Text"
       fill="currentColor"
       opacity=".15"
       id="rect52" />
  </g>
  <g
     id="north-active-tab-right"
     transform="matrix(1.3333174,0,0,0.24999564,-51.999186,-221.08601)"
     class="ColorScheme-Text"
     fill="currentColor"
     opacity="0.15">
    <rect
       x="51"
       y="916.35999"
       width="6"
       height="32"
       id="north-right-rect" />
  </g>
  <rect
     id="north-active-tab-center"
     x="8"
     y="8.0001097"
     width="8"
     height="7.9998608"
     class="ColorScheme-Text"
     fill="currentColor"
     opacity="0.15" />
  <g
     id="north-active-tab-left"
     transform="matrix(1.3333174,0,0,0.24999564,-17.333126,-221.08603)"
     class="ColorScheme-Text"
     fill="currentColor"
     opacity="0.15">
    <rect
       transform="scale(-1,1)"
       x="-19"
       y="916.35999"
       width="6"
       height="32"
       id="north-left-rect" />
  </g>
  <g
     id="north-active-tab-topleft"
     transform="matrix(0.66666666,0,0,0.66666606,-8.6666667,-606.90614)"
     class="ColorScheme-Text"
     fill="currentColor"
     opacity="0.15">
    <path
       d="m 25,910.36 c -6.648,0 -12,5.352 -12,12 h 12 v -10 z"
       id="north-topleft-path" />
  </g>
  <g
     id="north-active-tab-top"
     transform="matrix(0.25,0,0,1.3333161,3.25,-1213.7977)"
     class="ColorScheme-Text"
     fill="currentColor"
     opacity="0.15">
    <rect
       transform="matrix(0,-1,-1,0,0,0)"
       x="-916.35999"
       y="-51"
       width="6"
       height="32"
       id="rect65" />
  </g>
  <g
     id="north-active-tab-topright"
     transform="matrix(0.66666666,0,0,0.66666606,-14,-606.90614)"
     class="ColorScheme-Text"
     fill="currentColor"
     opacity="0.15">
    <path
       d="m 45,910.36 v 12 h 12 c 0,-6.648 -5.352,-12 -12,-12 z"
       id="north-topright-path" />
  </g>
  <g
     id="north-active-tab-bottom"
     transform="matrix(0.25,0,0,1.3333209,3.25,-1248.4682)"
     class="ColorScheme-Text"
     fill="currentColor"
     opacity="0.15">
    <rect
       transform="rotate(90)"
       x="948.35999"
       y="-51"
       width="6"
       height="32"
       id="north-bottom-rect" />
  </g>
  <g
     id="north-active-tab-bottomleft"
     transform="matrix(0.66666666,0,0,0.66666581,-8.6666667,-612.23919)"
     class="ColorScheme-Text"
     fill="currentColor"
     opacity="0.15">
    <path
       d="m 13,942.36 c 0,6.648 5.352,12 12,12 v -12 H 15 Z"
       id="north-bottomleft-path" />
  </g>
  <g
     id="north-active-tab-bottomright"
     transform="matrix(0.66666666,0,0,0.66666581,-14,-637.83899)"
     class="ColorScheme-Text"
     fill="currentColor"
     opacity="0.15">
    <path
       d="m 45,980.75968 v 12 c 6.648,0 12,-5.352 12,-12 H 47 Z"
       id="north-bottomright-path" />
  </g>
  <g
     id="east-active-tab-topleft"
     transform="rotate(90 265.18 501.18)">
    <rect
       x="30"
       y="359.36"
       width="10"
       height="3"
       class="ColorScheme-Text"
       fill="currentColor"
       opacity=".15"
       id="rect78" />
  </g>
  <g
     id="east-active-tab-bottomleft"
     transform="rotate(90 265.18 501.18)">
    <rect
       x="120"
       y="359.36"
       width="10"
       height="3"
       class="ColorScheme-Text"
       fill="currentColor"
       opacity=".15"
       id="rect81" />
  </g>
  <rect
     y="465.7644"
     x="-234.08237"
     height="41.12067"
     width="41.362885"
     id="hint-tile-center"
     style="opacity:0.875;fill:#008000;fill-opacity:1;stroke:none" />
  <rect
     y="436"
     x="265.74127"
     height="5"
     width="6"
     id="south-active-tab-hint-left-margin"
     style="fill:#4e9a06;fill-opacity:1;fill-rule:nonzero;stroke:none" />
  <rect
     style="fill:#4e9a06;fill-opacity:1;fill-rule:nonzero;stroke:none"
     id="south-active-tab-hint-right-margin"
     width="6"
     height="5"
     x="359.74127"
     y="436" />
  <rect
     y="430"
     x="319.98248"
     height="10"
     width="5"
     id="south-active-tab-hint-top-margin"
     style="fill:#4e9a06;fill-opacity:1;fill-rule:nonzero;stroke:none;stroke-width:1" />
  <rect
     style="fill:#4e9a06;fill-opacity:1;fill-rule:nonzero;stroke:none;stroke-width:1"
     id="south-active-tab-hint-bottom-margin"
     width="5"
     height="10"
     x="319.98248"
     y="445" />
  <rect
     style="fill:#4e9a06;fill-opacity:1;fill-rule:nonzero;stroke:none"
     id="east-active-tab-hint-bottom-margin"
     width="6"
     height="5"
     x="-364.69867"
     y="411.15656"
     transform="rotate(-90)" />
  <rect
     y="411.15656"
     x="-270.69867"
     height="5"
     width="6"
     id="east-active-tab-hint-top-margin"
     style="fill:#4e9a06;fill-opacity:1;fill-rule:nonzero;stroke:none"
     transform="rotate(-90)" />
  <rect
     style="fill:#4e9a06;fill-opacity:1;fill-rule:nonzero;stroke:none"
     id="east-active-tab-hint-left-margin"
     width="5"
     height="8"
     x="-310.4574"
     y="404.15656"
     transform="rotate(-90)" />
  <rect
     y="420.15656"
     x="-310.4574"
     height="4"
     width="5"
     id="east-active-tab-hint-right-margin"
     style="fill:#4e9a06;fill-opacity:1;fill-rule:nonzero;stroke:none"
     transform="rotate(-90)" />
  <rect
     style="fill:#4e9a06;fill-opacity:1;fill-rule:nonzero;stroke:none"
     id="west-active-tab-hint-top-margin"
     width="6"
     height="5"
     x="265"
     y="-212.7413"
     transform="rotate(90)" />
  <rect
     y="-212.7413"
     x="359"
     height="5"
     width="6"
     id="west-active-tab-hint-bottom-margin"
     style="fill:#4e9a06;fill-opacity:1;fill-rule:nonzero;stroke:none"
     transform="rotate(90)" />
  <rect
     style="fill:#4e9a06;fill-opacity:1;fill-rule:nonzero;stroke:none"
     id="west-active-tab-hint-right-margin"
     width="5"
     height="8"
     x="319.24127"
     y="-219.7413"
     transform="rotate(90)" />
  <rect
     y="-203.7413"
     x="319.24127"
     height="4"
     width="5"
     id="west-active-tab-hint-left-margin"
     style="fill:#4e9a06;fill-opacity:1;fill-rule:nonzero;stroke:none"
     transform="rotate(90)" />
  <rect
     y="-222"
     x="-372.74127"
     height="5"
     width="6"
     id="north-active-tab-hint-right-margin"
     style="fill:#4e9a06;fill-opacity:1;fill-rule:nonzero;stroke:none"
     transform="scale(-1)" />
  <rect
     style="fill:#4e9a06;fill-opacity:1;fill-rule:nonzero;stroke:none"
     id="north-active-tab-hint-left-margin"
     width="6"
     height="5"
     x="-278.74127"
     y="-222"
     transform="scale(-1)" />
  <rect
     y="-229"
     x="-318.5"
     height="10"
     width="5"
     id="north-active-tab-hint-bottom-margin"
     style="fill:#4e9a06;fill-opacity:1;fill-rule:nonzero;stroke:none;stroke-width:1"
     transform="scale(-1)" />
  <rect
     style="fill:#4e9a06;fill-opacity:1;fill-rule:nonzero;stroke:none;stroke-width:1"
     id="north-active-tab-hint-top-margin"
     width="5"
     height="10"
     x="-318.5"
     y="-219"
     transform="scale(-1)" />
</svg>
